<svg id="visual" viewBox="0 0 960 540" width="960" height="540" xmlns="http://www.w3.org/2000/svg" xmlns:xlink="http://www.w3.org/1999/xlink" version="1.1"><rect x="0" y="0" width="960" height="540" fill="#ffffff"></rect><defs><linearGradient id="grad1_0" x1="43.8%" y1="100%" x2="100%" y2="0%"><stop offset="14.444444444444446%" stop-color="#ffffff" stop-opacity="1"></stop><stop offset="85.55555555555554%" stop-color="#ffffff" stop-opacity="1"></stop></linearGradient></defs><defs><linearGradient id="grad2_0" x1="0%" y1="100%" x2="56.3%" y2="0%"><stop offset="14.444444444444446%" stop-color="#ffffff" stop-opacity="1"></stop><stop offset="85.55555555555554%" stop-color="#ffffff" stop-opacity="1"></stop></linearGradient></defs><g transform="translate(960, 540)"><path d="M-243 0C-241.6 -33.4 -240.3 -66.7 -224.5 -93C-208.7 -119.3 -178.6 -138.5 -152 -152C-125.4 -165.5 -102.4 -173.3 -77.7 -187.5C-52.9 -201.8 -26.5 -222.4 0 -243L0 0Z" fill="#f9cfcf"></path></g><g transform="translate(0, 0)"><path d="M243 0C240.9 34.6 238.8 69.1 220.8 91.5C202.8 113.8 168.9 123.9 147.1 147.1C125.2 170.2 115.5 206.3 93 224.5C70.5 242.7 35.2 242.8 0 243L0 0Z" fill="#f9cfcf"></path></g></svg>