<svg id="visual" viewBox="0 0 900 450" width="900" height="450" xmlns="http://www.w3.org/2000/svg" xmlns:xlink="http://www.w3.org/1999/xlink" version="1.1"><rect x="0" y="0" width="900" height="450" fill="#ffffff"></rect><defs><linearGradient id="grad1_0" x1="50%" y1="100%" x2="100%" y2="0%"><stop offset="10%" stop-color="#ffffff" stop-opacity="1"></stop><stop offset="90%" stop-color="#ffffff" stop-opacity="1"></stop></linearGradient></defs><defs><linearGradient id="grad2_0" x1="0%" y1="100%" x2="50%" y2="0%"><stop offset="10%" stop-color="#ffffff" stop-opacity="1"></stop><stop offset="90%" stop-color="#ffffff" stop-opacity="1"></stop></linearGradient></defs><g transform="translate(900, 450)"><path d="M-225 0C-224.3 -31.8 -223.7 -63.5 -207.9 -86.1C-192.1 -108.7 -161.2 -122.1 -137.9 -137.9C-114.6 -153.6 -99 -171.7 -77.3 -186.6C-55.6 -201.5 -27.8 -213.3 0 -225L0 0Z" fill="#f9cfcf"></path></g><g transform="translate(0, 0)"><path d="M225 0C213.8 25.4 202.6 50.8 194 80.4C185.5 109.9 179.6 143.5 159.1 159.1C138.6 174.7 103.6 172.2 74.6 180.2C45.7 188.1 22.8 206.6 0 225L0 0Z" fill="#f9cfcf"></path></g></svg>