<svg class="animated" id="freepik_stories-home-screen" xmlns="http://www.w3.org/2000/svg" viewBox="0 0 500 500" version="1.1" xmlns:xlink="http://www.w3.org/1999/xlink" xmlns:svgjs="http://svgjs.com/svgjs"><style>svg#freepik_stories-home-screen:not(.animated) .animable {opacity: 0;}svg#freepik_stories-home-screen.animated #freepik--background-complete--inject-4 {animation: 1s 1 forwards cubic-bezier(.36,-0.01,.5,1.38) zoomIn;animation-delay: 0s;}svg#freepik_stories-home-screen.animated #freepik--Plant--inject-4 {animation: 1s 1 forwards cubic-bezier(.36,-0.01,.5,1.38) slideUp;animation-delay: 0s;}svg#freepik_stories-home-screen.animated #freepik--Device--inject-4 {animation: 1s 1 forwards cubic-bezier(.36,-0.01,.5,1.38) zoomIn;animation-delay: 0s;}svg#freepik_stories-home-screen.animated #freepik--Character--inject-4 {animation: 1s 1 forwards cubic-bezier(.36,-0.01,.5,1.38) slideUp;animation-delay: 0s;}svg#freepik_stories-home-screen.animated #freepik--Floor--inject-4 {animation: 1s 1 forwards cubic-bezier(.36,-0.01,.5,1.38) slideUp;animation-delay: 0s;}            @keyframes zoomIn {                0% {                    opacity: 0;                    transform: scale(0.5);                }                100% {                    opacity: 1;                    transform: scale(1);                }            }                    @keyframes slideUp {                0% {                    opacity: 0;                    transform: translateY(30px);                }                100% {                    opacity: 1;                    transform: inherit;                }            }        </style><g id="freepik--background-complete--inject-4" class="animable" style="transform-origin: 247.665px 251.875px;"><rect x="69.12" y="286.98" width="96.42" height="182.26" style="fill: rgb(224, 224, 224); transform-origin: 117.33px 378.11px;" id="elpwqd4fezaba" class="animable"></rect><rect x="40.51" y="286.98" width="96.42" height="182.26" style="fill: rgb(245, 245, 245); transform-origin: 88.72px 378.11px;" id="elptz3msdb1x9" class="animable"></rect><path d="M129.83,324.5H47.06V295.61h82.77Zm-81.75-1h80.73V296.62H48.08Z" style="fill: rgb(224, 224, 224); transform-origin: 88.445px 310.055px;" id="elb1xtj37602q" class="animable"></path><path d="M73.3,296.11h31.41a0,0,0,0,1,0,0v.81a4.95,4.95,0,0,1-4.95,4.95H78.25a4.95,4.95,0,0,1-4.95-4.95v-.81A0,0,0,0,1,73.3,296.11Z" style="fill: rgb(235, 235, 235); transform-origin: 89.005px 298.99px;" id="elk7jmysoyp8" class="animable"></path><path d="M129.83,361.2H47.06V332.3h82.77Zm-81.75-1h80.73V333.32H48.08Z" style="fill: rgb(224, 224, 224); transform-origin: 88.445px 346.75px;" id="elj6krhqtjcnn" class="animable"></path><path d="M73.3,332.81h31.41a0,0,0,0,1,0,0v.81a4.95,4.95,0,0,1-4.95,4.95H78.25a4.95,4.95,0,0,1-4.95-4.95v-.81A0,0,0,0,1,73.3,332.81Z" style="fill: rgb(235, 235, 235); transform-origin: 89.005px 335.69px;" id="elsfjfp4vval" class="animable"></path><path d="M129.83,397.9H47.06V369h82.77Zm-81.75-1h80.73V370H48.08Z" style="fill: rgb(224, 224, 224); transform-origin: 88.445px 383.45px;" id="elau43nhp97cn" class="animable"></path><path d="M73.3,369.51h31.41a0,0,0,0,1,0,0v.81a4.95,4.95,0,0,1-4.95,4.95H78.25a4.95,4.95,0,0,1-4.95-4.95v-.81A0,0,0,0,1,73.3,369.51Z" style="fill: rgb(235, 235, 235); transform-origin: 89.005px 372.39px;" id="elnldqzouqhep" class="animable"></path><path d="M129.83,434.6H47.06V405.7h82.77Zm-81.75-1h80.73V406.72H48.08Z" style="fill: rgb(224, 224, 224); transform-origin: 88.445px 420.15px;" id="elfx21kph3rth" class="animable"></path><path d="M73.3,406.21h31.41a0,0,0,0,1,0,0V407A4.95,4.95,0,0,1,99.76,412H78.25A4.95,4.95,0,0,1,73.3,407v-.81A0,0,0,0,1,73.3,406.21Z" style="fill: rgb(235, 235, 235); transform-origin: 89.005px 409.095px;" id="elj3gwk27f33" class="animable"></path><rect x="36.23" y="280.16" width="104.73" height="9.08" style="fill: rgb(235, 235, 235); transform-origin: 88.595px 284.7px;" id="eli7q1zegudu" class="animable"></rect><rect x="140.96" y="280.16" width="31.49" height="9.08" style="fill: rgb(224, 224, 224); transform-origin: 156.705px 284.7px;" id="eljtllliouku" class="animable"></rect><rect x="40.51" y="469.24" width="5.07" height="9.31" style="fill: rgb(224, 224, 224); transform-origin: 43.045px 473.895px;" id="elqawu2jtgju" class="animable"></rect><rect x="71.81" y="469.24" width="5.07" height="9.31" style="fill: rgb(224, 224, 224); transform-origin: 74.345px 473.895px;" id="elgchaunu5ufs" class="animable"></rect><rect x="129" y="469.24" width="5.07" height="9.31" style="fill: rgb(224, 224, 224); transform-origin: 131.535px 473.895px;" id="eldgnpyal7oxr" class="animable"></rect><rect x="157.59" y="469.24" width="5.07" height="9.31" style="fill: rgb(224, 224, 224); transform-origin: 160.125px 473.895px;" id="elvdfkwxyvhqa" class="animable"></rect><polygon points="129.78 255.92 139.54 280.89 133.47 280.86 128.61 265.52 129.78 255.92" style="fill: rgb(224, 224, 224); transform-origin: 134.075px 268.405px;" id="elnqf65w19es" class="animable"></polygon><polygon points="96.45 232.85 93.09 280.69 127.73 281.41 131.63 232.85 96.45 232.85" style="fill: rgb(235, 235, 235); transform-origin: 112.36px 257.13px;" id="eloykots8tf1" class="animable"></polygon><polygon points="99.91 236.7 97.12 276.52 122.87 277.73 126.47 236.47 99.91 236.7" style="fill: rgb(250, 250, 250); transform-origin: 111.795px 257.1px;" id="el8r1hxp8xzlc" class="animable"></polygon><polygon points="105.56 242.33 103.47 270.32 117.68 270.32 120.19 242.33 105.56 242.33" style="fill: rgb(224, 224, 224); transform-origin: 111.83px 256.325px;" id="elyu75zqt68e" class="animable"></polygon><rect x="320.65" y="47.25" width="129.28" height="232.25" style="fill: rgb(235, 235, 235); transform-origin: 385.29px 163.375px;" id="elbfhw7sdka7o" class="animable"></rect><rect x="325.81" y="53.99" width="117.62" height="218.59" style="fill: rgb(250, 250, 250); transform-origin: 384.62px 163.285px;" id="elcy7p9vbel6" class="animable"></rect><polygon points="455.4 281.59 449.93 279.5 449.93 43.31 455.4 43.31 455.4 281.59" style="fill: rgb(224, 224, 224); transform-origin: 452.665px 162.45px;" id="elxcpshvntycr" class="animable"></polygon><rect x="325.81" y="116.87" width="120.17" height="2.33" style="fill: rgb(224, 224, 224); transform-origin: 385.895px 118.035px;" id="elpacbviyxnjd" class="animable"></rect><rect x="325.81" y="168.93" width="120.17" height="2.33" style="fill: rgb(224, 224, 224); transform-origin: 385.895px 170.095px;" id="eli3jwkewhxjg" class="animable"></rect><rect x="325.81" y="220.98" width="120.17" height="2.33" style="fill: rgb(224, 224, 224); transform-origin: 385.895px 222.145px;" id="elbu81i4kxxv" class="animable"></rect><g id="elw5d971gcor"><rect x="304.25" y="195.44" width="160.74" height="5.94" style="fill: rgb(224, 224, 224); transform-origin: 384.62px 198.41px; transform: rotate(-90deg);" class="animable"></rect></g><rect x="348.46" y="53.99" width="2.69" height="64.05" style="fill: rgb(224, 224, 224); transform-origin: 349.805px 86.015px;" id="elv2vrsdd2qb" class="animable"></rect><rect x="371.68" y="53.99" width="2.69" height="64.05" style="fill: rgb(224, 224, 224); transform-origin: 373.025px 86.015px;" id="elhhdefbufvu7" class="animable"></rect><rect x="394.9" y="53.99" width="2.69" height="64.05" style="fill: rgb(224, 224, 224); transform-origin: 396.245px 86.015px;" id="elttbxlzkqn9" class="animable"></rect><rect x="418.12" y="53.99" width="2.69" height="64.05" style="fill: rgb(224, 224, 224); transform-origin: 419.465px 86.015px;" id="elz3jufkom6k" class="animable"></rect><rect x="315.18" y="43.31" width="5.47" height="237.62" style="fill: rgb(224, 224, 224); transform-origin: 317.915px 162.12px;" id="elx470tjrrl1" class="animable"></rect><rect x="315.18" y="40.92" width="140.22" height="6.34" style="fill: rgb(224, 224, 224); transform-origin: 385.29px 44.09px;" id="el0hj78qngjh7o" class="animable"></rect><rect x="311.3" y="282.38" width="147.8" height="5.9" style="fill: rgb(224, 224, 224); transform-origin: 385.2px 285.33px;" id="elr7n67e8qc2d" class="animable"></rect><polygon points="449.93 279.5 459.1 282.38 311.3 282.38 320.65 279.5 449.93 279.5" style="fill: rgb(224, 224, 224); transform-origin: 385.2px 280.94px;" id="elo0uhupe9qqi" class="animable"></polygon><path d="M120.63,55.28a29.46,29.46,0,0,1,7.23-3.14L129.35,45l12.1-.21,1.74,7.11a29.33,29.33,0,0,1,7.34,2.88l6.12-4,8.7,8.4-3.79,6.25a30.12,30.12,0,0,1,3.15,7.24l7.16,1.49.21,12.1L165,88a30.06,30.06,0,0,1-2.89,7.34l4,6.12-8.4,8.7-6.25-3.79a29.53,29.53,0,0,1-7.24,3.14l-1.49,7.17-12.1.21-1.74-7.11a29.63,29.63,0,0,1-7.34-2.88l-6.11,4-8.71-8.4,3.79-6.25A29.69,29.69,0,0,1,107.36,89l-7.16-1.49L100,75.39l7.11-1.74A29.51,29.51,0,0,1,110,66.31l-4-6.11,8.4-8.71,6.26,3.79Zm6.44,16.12a13,13,0,1,0,18.36-.32A13,13,0,0,0,127.07,71.4Z" style="fill: rgb(224, 224, 224); transform-origin: 136.04px 80.84px;" id="elmq8y0k74h7k" class="animable"></path><path d="M127.07,71.4a9.73,9.73,0,0,1,2.42-2.12,13,13,0,0,1,8.47-2,13.12,13.12,0,0,1,5.76,2,13.3,13.3,0,0,1,4.65,5.24,13.42,13.42,0,0,1,1.26,7.64,13.24,13.24,0,0,1-11,11.35,12.23,12.23,0,0,1-4,.07A12.5,12.5,0,0,1,131,92.57a13.27,13.27,0,0,1-5.41-4.47,13.06,13.06,0,0,1-2.24-5.68,12.84,12.84,0,0,1,1.7-8.53,9.76,9.76,0,0,1,2-2.49c.08.06-.78.85-1.78,2.63a12.92,12.92,0,0,0-1.43,8.31,12.64,12.64,0,0,0,7.41,9.6,11.89,11.89,0,0,0,3.49,1,12,12,0,0,0,3.78-.08A12.57,12.57,0,0,0,148.9,82.11a12.7,12.7,0,0,0-1.14-7.24,12.88,12.88,0,0,0-4.38-5,12.7,12.7,0,0,0-5.48-2,13,13,0,0,0-8.26,1.72C127.9,70.58,127.14,71.47,127.07,71.4Z" style="fill: rgb(224, 224, 224); transform-origin: 136.475px 80.4569px;" id="ell4aw2u16peg" class="animable"></path><path d="M120.62,55.28l-.4-.21-1.2-.7-4.71-2.78.15,0-8.36,8.76,0-.24,4,6.1.07.11-.06.12a29.29,29.29,0,0,0-2.84,7.29l0,.14-.14,0-7.1,1.76.2-.26c.07,3.81.16,7.85.24,12.1l-.23-.29,7.16,1.48.18,0,.05.18a29.66,29.66,0,0,0,3.13,7.15l.1.17-.1.16L107,102.64l0-.41,8.72,8.39-.43,0,6.11-4,.18-.12.18.11A29.44,29.44,0,0,0,129,109.4l.21.06.05.21c.55,2.22,1.15,4.65,1.75,7.1l-.36-.28,12.1-.21-.36.29,1.49-7.16,0-.22.21-.06a29.91,29.91,0,0,0,7.14-3.1h0l.19-.11.19.11,6.25,3.79-.46.06,8.41-8.7,0,.46-4-6.12-.12-.19.11-.19a29.59,29.59,0,0,0,2.86-7.25l.05-.21.21,0,7.1-1.74-.27.35q-.09-6.2-.2-12.09l.28.32L164.64,73l-.2,0-.05-.19a29.65,29.65,0,0,0-3.1-7.16l-.1-.17.1-.16c1.3-2.15,2.56-4.22,3.8-6.25l0,.38L156.45,51l.35,0-6.12,4-.14.09L150.4,55a29.22,29.22,0,0,0-7.27-2.89l-.14,0,0-.15c-.62-2.58-1.18-4.91-1.71-7.1l.21.16-12.1.16.16-.13c-.61,2.86-1.11,5.2-1.53,7.15l0,.07-.07,0a30.88,30.88,0,0,0-5.53,2.13l-1.3.68-.44.22L121,55c.27-.17.69-.43,1.27-.74A28.79,28.79,0,0,1,127.83,52l-.09.09c.4-2,.87-4.31,1.45-7.17l0-.13h.14l12.1-.27h.17l0,.17c.55,2.2,1.13,4.52,1.77,7.1l-.18-.18a30,30,0,0,1,7.41,2.89h-.27l6.1-4,.19-.13.16.16,8.73,8.39.17.17-.12.21c-1.23,2-2.49,4.11-3.78,6.26v-.33A30.17,30.17,0,0,1,165,72.55l-.26-.24,7.17,1.48.26.06v.27q.1,5.91.22,12.1v.28l-.28.07-7.1,1.75.26-.26a29.8,29.8,0,0,1-2.91,7.43l0-.38,4,6.11.16.25-.2.21-8.4,8.71-.21.21-.25-.15-6.25-3.79h.37a29.89,29.89,0,0,1-7.32,3.18l.27-.28c-.52,2.46-1,4.9-1.5,7.16L143,117h-.29l-12.1.2h-.29l-.07-.29c-.6-2.45-1.19-4.88-1.74-7.1l.27.26a29.76,29.76,0,0,1-7.43-2.93h.37l-6.12,4-.24.16-.19-.2-8.7-8.41-.19-.19.14-.22,3.8-6.25v.33a29.84,29.84,0,0,1-3.17-7.31l.23.21-7.15-1.5-.23,0V87.5q-.09-6.37-.18-12.1v-.22l.2-.05L107,73.41l-.18.18a29.63,29.63,0,0,1,2.94-7.39v.23l-4-6.13-.08-.13.1-.11,8.46-8.65.06-.07.08,0L119,54.25l1.18.76A3.22,3.22,0,0,1,120.62,55.28Z" style="fill: rgb(224, 224, 224); transform-origin: 136.055px 80.86px;" id="elzfk7vu77ms" class="animable"></path><path d="M195.09,31.64a17.44,17.44,0,0,1,4.33-1.88l.89-4.29,7.25-.13,1,4.25A17.76,17.76,0,0,1,213,31.32l3.66-2.4,5.21,5L219.6,37.7A18,18,0,0,1,221.48,42l4.28.89.13,7.24-4.25,1.05a17.67,17.67,0,0,1-1.73,4.39l2.4,3.66-5,5.21-3.74-2.27a17.35,17.35,0,0,1-4.34,1.88l-.89,4.29-7.24.13-1-4.25a18,18,0,0,1-4.4-1.73L192,64.92l-5.21-5L189,56.14a17.65,17.65,0,0,1-1.88-4.33l-4.29-.89-.12-7.24,4.25-1a17.67,17.67,0,0,1,1.73-4.39l-2.4-3.66,5-5.21,3.74,2.27ZM199,41.29a7.77,7.77,0,1,0,11-.2A7.76,7.76,0,0,0,199,41.29Z" style="fill: rgb(245, 245, 245); transform-origin: 204.3px 46.905px;" id="elawv534zmr1k" class="animable"></path><path d="M199,41.29A5.78,5.78,0,0,1,200.4,40a7.72,7.72,0,0,1,5.07-1.2A7.82,7.82,0,0,1,208.91,40a8,8,0,0,1,2.79,3.14,7.64,7.64,0,0,1,.71,2.18,7.36,7.36,0,0,1,0,2.39,8,8,0,0,1-6.56,6.8,7.68,7.68,0,0,1-2.39,0,7.41,7.41,0,0,1-2.21-.63,7.94,7.94,0,0,1-4.58-6.08,7.78,7.78,0,0,1,1-5.1A5.7,5.7,0,0,1,199,41.29a18.14,18.14,0,0,0-1.07,1.57,7.78,7.78,0,0,0-.85,5,7.47,7.47,0,0,0,1.33,3.23,7.6,7.6,0,0,0,3.1,2.51,7.06,7.06,0,0,0,2.09.59,7.22,7.22,0,0,0,2.27-.05A7.56,7.56,0,0,0,212,47.7a7.19,7.19,0,0,0,0-2.27,7.26,7.26,0,0,0-.66-2.07,7.59,7.59,0,0,0-5.9-4.23,7.76,7.76,0,0,0-4.94,1A19.07,19.07,0,0,0,199,41.29Z" style="fill: rgb(245, 245, 245); transform-origin: 204.547px 46.6777px;" id="eluwn82jiqw3" class="animable"></path><path d="M195.09,31.64l-.24-.13-.72-.41-2.82-1.67h.09l-5,5.24v-.14l2.42,3.65,0,.06,0,.07a17.76,17.76,0,0,0-1.7,4.37l0,.08-.09,0-4.25,1,.12-.16q.08,3.42.15,7.25l-.14-.17,4.29.88.11,0,0,.11A17.16,17.16,0,0,0,189.2,56l.06.1-.06.1c-.71,1.16-1.48,2.44-2.27,3.75l0-.25,5.22,5-.26,0,3.66-2.4.1-.07.12.06A17.86,17.86,0,0,0,200.08,64l.13,0,0,.12c.32,1.34.68,2.79,1,4.26l-.21-.17,7.24-.13-.21.18c.28-1.36.58-2.82.89-4.29l0-.13.13,0A17.43,17.43,0,0,0,213.42,62h0l.12-.07.11.07,3.74,2.27-.27,0,5-5.21,0,.27-2.39-3.66-.07-.11.06-.12a17.36,17.36,0,0,0,1.71-4.34l0-.12.13,0,4.25-1-.16.21c0-2.48-.08-4.89-.12-7.25l.16.2-4.28-.9-.12,0,0-.12a17.67,17.67,0,0,0-1.86-4.28l-.06-.1.06-.1,2.28-3.74,0,.23-5.2-5,.21,0-3.67,2.39-.08.05-.08-.05a17.63,17.63,0,0,0-4.36-1.72l-.08,0,0-.08c-.38-1.55-.71-2.94-1-4.26l.13.1-7.24.1.09-.08c-.37,1.71-.67,3.11-.92,4.28v0h0a18.19,18.19,0,0,0-3.31,1.28l-.78.41-.26.13a1.19,1.19,0,0,1,.24-.17c.17-.1.42-.25.77-.44a16.75,16.75,0,0,1,3.3-1.34l-.05,0c.24-1.17.52-2.58.87-4.29v-.08h.08l7.24-.16h.11l0,.1c.33,1.31.68,2.7,1.06,4.25l-.11-.11a18.18,18.18,0,0,1,4.44,1.73h-.16l3.65-2.41.11-.07.1.09,5.22,5,.11.1-.08.13-2.26,3.75v-.2A17.88,17.88,0,0,1,221.67,42l-.15-.14,4.29.89.16,0v.17c0,2.35.09,4.77.13,7.24v.17l-.17,0-4.25,1,.16-.15a18.15,18.15,0,0,1-1.75,4.45v-.23l2.4,3.66.1.15-.12.12-5,5.22-.12.12-.16-.09-3.74-2.27h.23a18.41,18.41,0,0,1-4.38,1.9l.15-.17c-.3,1.47-.61,2.93-.89,4.29l0,.17h-.17l-7.25.13h-.17l0-.17c-.36-1.47-.72-2.92-1-4.25l.16.15a18,18,0,0,1-4.45-1.75h.22l-3.66,2.4-.14.09-.12-.11-5.21-5-.11-.11.08-.14L188.87,56v.2a17.69,17.69,0,0,1-1.9-4.38l.14.13-4.28-.9-.14,0v-.14c0-2.54-.08-5-.11-7.24v-.13l.13,0,4.25-1-.1.11a17.5,17.5,0,0,1,1.75-4.42v.13c-.86-1.32-1.66-2.56-2.39-3.67l-.05-.07.07-.07,5.06-5.18,0,0,0,0L194.14,31l.71.45A2,2,0,0,1,195.09,31.64Z" style="fill: rgb(245, 245, 245); transform-origin: 204.34px 46.915px;" id="elu5apnrxkuu" class="animable"></path><rect x="46.06" y="137.95" width="81.86" height="85.34" style="fill: rgb(224, 224, 224); transform-origin: 86.99px 180.62px;" id="el21v0kg7a7yp" class="animable"></rect><rect x="40.52" y="137.95" width="81.86" height="85.34" style="fill: rgb(235, 235, 235); transform-origin: 81.45px 180.62px;" id="els9sbxx3awk" class="animable"></rect><rect x="51.52" y="149.42" width="59.86" height="62.39" style="fill: rgb(250, 250, 250); transform-origin: 81.45px 180.615px;" id="elidsvmn9mgpf" class="animable"></rect><path d="M51.52,212.23a11.32,11.32,0,0,1-1.49,1.7c-1,1-2.31,2.36-3.82,3.84s-2.88,2.81-3.9,3.76A11,11,0,0,1,40.6,223a11,11,0,0,1,1.49-1.69c1-1,2.31-2.37,3.82-3.86s2.89-2.81,3.91-3.76A11.15,11.15,0,0,1,51.52,212.23Z" style="fill: rgb(224, 224, 224); transform-origin: 46.06px 217.615px;" id="el11n1ogzskmnk" class="animable"></path><path d="M111.38,212.08a11,11,0,0,1,1.69,1.49c1,1,2.37,2.31,3.85,3.82s2.81,2.88,3.76,3.9a11,11,0,0,1,1.46,1.71,11,11,0,0,1-1.69-1.49c-1-1-2.37-2.31-3.86-3.82s-2.81-2.89-3.76-3.91A11.15,11.15,0,0,1,111.38,212.08Z" style="fill: rgb(224, 224, 224); transform-origin: 116.76px 217.54px;" id="elpj0vlnz0oao" class="animable"></path><path d="M111.22,149.59a10.76,10.76,0,0,1,1.49-1.7c1-1,2.31-2.36,3.81-3.85s2.89-2.81,3.91-3.75a10.32,10.32,0,0,1,1.71-1.46,11.61,11.61,0,0,1-1.49,1.69c-1,1-2.31,2.37-3.82,3.85s-2.9,2.82-3.91,3.76A11.69,11.69,0,0,1,111.22,149.59Z" style="fill: rgb(224, 224, 224); transform-origin: 116.68px 144.21px;" id="el0a778x9bm7ng" class="animable"></path><path d="M51.36,149.74a11.1,11.1,0,0,1-1.7-1.5c-1-1-2.36-2.3-3.84-3.81s-2.81-2.89-3.76-3.9a12.21,12.21,0,0,1-1.46-1.71,10.36,10.36,0,0,1,1.69,1.49c1,1,2.37,2.31,3.86,3.82S49,147,49.9,148A10.4,10.4,0,0,1,51.36,149.74Z" style="fill: rgb(224, 224, 224); transform-origin: 45.98px 144.28px;" id="elwuhf2wqojn" class="animable"></path><path d="M111.22,211.81s0-.1,0-.3,0-.49,0-.87c0-.77,0-1.9,0-3.36,0-2.95,0-7.25,0-12.71,0-10.93-.06-26.5-.1-45.15l.2.2-59.69,0h0l.23-.23c0,22.9,0,44.33,0,62.39l-.2-.19,43.24.1,12.13.05,3.21,0h1.12l-.27,0h-.81l-3.17,0-12.09,0-43.36.1h-.19v-.2c0-18.06,0-39.49,0-62.39v-.22h.23l59.69,0h.19v.2c0,18.7-.07,34.32-.1,45.27,0,5.45,0,9.73,0,12.67,0,1.45,0,2.56,0,3.33,0,.36,0,.64,0,.85S111.22,211.81,111.22,211.81Z" style="fill: rgb(224, 224, 224); transform-origin: 81.525px 180.435px;" id="elvwufpp3v2x" class="animable"></path><path d="M67.32,175.49S66,190.94,82.77,190.94C82.77,182.69,76,176.18,67.32,175.49Z" style="fill: rgb(235, 235, 235); transform-origin: 75.0328px 183.215px;" id="elhmh5xavjp1c" class="animable"></path><path d="M97.93,175.5S82.49,174.22,82.49,191C90.73,191,97.24,184.14,97.93,175.5Z" style="fill: rgb(235, 235, 235); transform-origin: 90.21px 183.239px;" id="el14tbdlvopzl" class="animable"></path><path d="M82,167s-12.62,11.33.69,23.9C88.91,184.38,88.38,174.09,82,167Z" style="fill: rgb(224, 224, 224); transform-origin: 81.8356px 178.95px;" id="elp0zpk4mqrtq" class="animable"></path></g><g id="freepik--Plant--inject-4" class="animable" style="transform-origin: 397.58px 362.97px;"><path d="M385.74,417.69c-17-9.21-36.19-26-43.64-45,18.42,9.5,33.94,25.51,43.64,45" style="fill: rgb(255, 114, 94); transform-origin: 363.92px 395.19px;" id="elmhzi0c7rx0b" class="animable"></path><path d="M384.63,389.13c-17-9.22-36.19-26-43.65-45,18.43,9.5,33.95,25.51,43.65,45" style="fill: rgb(255, 114, 94); transform-origin: 362.805px 366.63px;" id="elrd7lhujakge" class="animable"></path><path d="M382.09,361.2c-17-9.21-36.2-26-43.65-45,18.42,9.51,33.95,25.52,43.65,45" style="fill: rgb(255, 114, 94); transform-origin: 360.265px 338.7px;" id="el22ry61u7hur" class="animable"></path><path d="M378.36,331.87c-15.81-11.52-32.82-30.82-38-50.75,17.15,12,30.65,30.05,38,50.75" style="fill: rgb(255, 114, 94); transform-origin: 359.36px 306.495px;" id="eli21mg5tzcv" class="animable"></path><path d="M373.55,309.24c-10.7-17.11-19.83-41.94-17.74-62.51a112.62,112.62,0,0,1,17.74,62.51" style="fill: rgb(255, 114, 94); transform-origin: 364.537px 277.985px;" id="elhs5vj6mszg" class="animable"></path><path d="M376,320c4.5-21.35,15.46-47.7,31.24-62.54A132.49,132.49,0,0,1,376,320" style="fill: rgb(255, 114, 94); transform-origin: 391.62px 288.73px;" id="elnih06kac45" class="animable"></path><path d="M379.49,344.17c6.44-21.85,20-48.33,37.68-62.42a137.58,137.58,0,0,1-37.68,62.42" style="fill: rgb(255, 114, 94); transform-origin: 398.33px 312.96px;" id="elhccsd48blm4" class="animable"></path><path d="M383.36,373.58c6.45-21.84,20-48.33,37.69-62.41a137.51,137.51,0,0,1-37.69,62.41" style="fill: rgb(255, 114, 94); transform-origin: 402.205px 342.375px;" id="elbzgw74w0k4" class="animable"></path><path d="M385.31,409.43c6.45-21.85,20-48.33,37.69-62.41a137.62,137.62,0,0,1-37.69,62.41" style="fill: rgb(255, 114, 94); transform-origin: 404.155px 378.225px;" id="elu6sy7g3gf8" class="animable"></path><path d="M373.12,304.94s.05.11.11.34.14.61.24,1l.87,4c.75,3.44,1.74,8.45,2.85,14.65s2.32,13.62,3.49,21.88,2.22,17.36,3.11,26.94,1.46,18.74,1.85,27.06.54,15.84.56,22.15,0,11.4-.13,14.93c-.05,1.72-.09,3.08-.13,4.06,0,.43,0,.77-.05,1.05a1.26,1.26,0,0,1,0,.36,1.65,1.65,0,0,1,0-.36c0-.28,0-.63,0-1.06v-4.05c0-3.53,0-8.63-.09-14.93s-.32-13.79-.71-22.11-1-17.46-1.9-27-2-18.66-3.06-26.92-2.26-15.66-3.33-21.87-2-11.23-2.64-14.69c-.31-1.69-.56-3-.73-4l-.18-1A2.47,2.47,0,0,1,373.12,304.94Z" style="fill: rgb(38, 50, 56); transform-origin: 379.663px 374.15px;" id="ely6bw3hbyh4k" class="animable"></path><g id="elri73dn630e"><g style="opacity: 0.3; transform-origin: 363.92px 395.19px;" class="animable"><path d="M385.74,417.69c-17-9.21-36.19-26-43.64-45,18.42,9.5,33.94,25.51,43.64,45" id="elrrcnrtnr4fp" class="animable" style="transform-origin: 363.92px 395.19px;"></path></g></g><g id="el00najuajwhhd"><g style="opacity: 0.3; transform-origin: 362.805px 366.63px;" class="animable"><path d="M384.63,389.13c-17-9.22-36.19-26-43.65-45,18.43,9.5,33.95,25.51,43.65,45" id="elqm7ij8ybwtp" class="animable" style="transform-origin: 362.805px 366.63px;"></path></g></g><g id="elft6xyrdmduh"><g style="opacity: 0.3; transform-origin: 360.265px 338.7px;" class="animable"><path d="M382.09,361.2c-17-9.21-36.2-26-43.65-45,18.42,9.51,33.95,25.52,43.65,45" id="eldtfgudylp89" class="animable" style="transform-origin: 360.265px 338.7px;"></path></g></g><g id="elq9lpch4khfs"><g style="opacity: 0.3; transform-origin: 359.36px 306.495px;" class="animable"><path d="M378.36,331.87c-15.81-11.52-32.82-30.82-38-50.75,17.15,12,30.65,30.05,38,50.75" id="el7424gz7xcx7" class="animable" style="transform-origin: 359.36px 306.495px;"></path></g></g><g id="elf193xwwtt3m"><g style="opacity: 0.3; transform-origin: 364.537px 277.985px;" class="animable"><path d="M373.55,309.24c-10.7-17.11-19.83-41.94-17.74-62.51a112.62,112.62,0,0,1,17.74,62.51" id="elsutolgd5p4a" class="animable" style="transform-origin: 364.537px 277.985px;"></path></g></g><g id="eltr67njvwpsg"><g style="opacity: 0.3; transform-origin: 391.62px 288.73px;" class="animable"><path d="M376,320c4.5-21.35,15.46-47.7,31.24-62.54A132.49,132.49,0,0,1,376,320" id="eli1h0h5spgwh" class="animable" style="transform-origin: 391.62px 288.73px;"></path></g></g><g id="elffjahoprr4a"><g style="opacity: 0.3; transform-origin: 398.33px 312.96px;" class="animable"><path d="M379.49,344.17c6.44-21.85,20-48.33,37.68-62.42a137.58,137.58,0,0,1-37.68,62.42" id="elfmwxj3qieoa" class="animable" style="transform-origin: 398.33px 312.96px;"></path></g></g><g id="el9fekyw3smsa"><g style="opacity: 0.3; transform-origin: 402.205px 342.375px;" class="animable"><path d="M383.36,373.58c6.45-21.84,20-48.33,37.69-62.41a137.51,137.51,0,0,1-37.69,62.41" id="elk6xyirx1zjs" class="animable" style="transform-origin: 402.205px 342.375px;"></path></g></g><g id="elwdrt9y6k2dj"><g style="opacity: 0.3; transform-origin: 404.155px 378.225px;" class="animable"><path d="M385.31,409.43c6.45-21.85,20-48.33,37.69-62.41a137.62,137.62,0,0,1-37.69,62.41" id="elobt1jn5g9cf" class="animable" style="transform-origin: 404.155px 378.225px;"></path></g></g><path d="M390.05,423.46c-10.37-13.69-20-33.95-19.89-51.34a96.24,96.24,0,0,1,19.89,51.34" style="fill: rgb(255, 114, 94); transform-origin: 380.105px 397.79px;" id="ell2ncwvd35a" class="animable"></path><path d="M398.07,401.32c-10.37-13.69-20-33.95-19.89-51.34a96.31,96.31,0,0,1,19.89,51.34" style="fill: rgb(255, 114, 94); transform-origin: 388.125px 375.65px;" id="elvfu37syqqg" class="animable"></path><path d="M404.78,379.11c-10.37-13.69-20-33.95-19.9-51.34a96.32,96.32,0,0,1,19.9,51.34" style="fill: rgb(255, 114, 94); transform-origin: 394.83px 353.44px;" id="el8oi73b0l08n" class="animable"></path><path d="M411,355.37c-8.69-15-15.9-36.31-13.69-53.46A96.89,96.89,0,0,1,411,355.37" style="fill: rgb(255, 114, 94); transform-origin: 403.989px 328.64px;" id="ela6xiaawxitb" class="animable"></path><path d="M414.31,336.29c-3-17.2-2.36-39.65,5.66-54.45a94.63,94.63,0,0,1-5.66,54.45" style="fill: rgb(255, 114, 94); transform-origin: 417.164px 309.065px;" id="el7xycg4gipvx" class="animable"></path><path d="M412.84,345.43C423,331,439.68,315.27,456.55,310.2a96.69,96.69,0,0,1-43.71,35.23" style="fill: rgb(255, 114, 94); transform-origin: 434.695px 327.815px;" id="el2roola8j9hu" class="animable"></path><path d="M408.06,365.15c11.79-14.06,30.57-28.84,48.66-32.6a100.62,100.62,0,0,1-48.66,32.6" style="fill: rgb(255, 114, 94); transform-origin: 432.39px 348.85px;" id="el0d6bhosagtfs" class="animable"></path><path d="M401.92,389c11.79-14.06,30.58-28.85,48.67-32.61A100.71,100.71,0,0,1,401.92,389" style="fill: rgb(255, 114, 94); transform-origin: 426.255px 372.695px;" id="el9zef7qa1neq" class="animable"></path><path d="M392.28,417c11.8-14.07,30.58-28.85,48.67-32.61A100.69,100.69,0,0,1,392.28,417" style="fill: rgb(255, 114, 94); transform-origin: 416.615px 400.695px;" id="elg7zf2hc7yrm" class="animable"></path><path d="M415.31,332.85s0,.11,0,.3-.07.52-.12.87c-.14.81-.32,1.91-.55,3.31-.48,2.88-1.26,7-2.31,12.14-2.09,10.23-5.41,24.28-10,39.53-2.31,7.63-4.7,14.84-7,21.35s-4.52,12.31-6.49,17.14-3.59,8.74-4.79,11.4L382.67,442l-.37.79c-.09.18-.14.27-.15.26a1,1,0,0,1,.09-.28c.08-.22.19-.49.31-.82.31-.76.74-1.8,1.27-3.11,1.12-2.69,2.7-6.61,4.6-11.46s4.05-10.68,6.35-17.18,4.62-13.72,6.92-21.33c4.58-15.24,8-29.25,10.17-39.44,1.11-5.1,2-9.23,2.51-12.09.28-1.39.5-2.49.67-3.3.07-.34.14-.62.19-.85A1.09,1.09,0,0,1,415.31,332.85Z" style="fill: rgb(38, 50, 56); transform-origin: 398.73px 387.95px;" id="elpl6v8bb5ixd" class="animable"></path><polygon points="406.31 479.21 369.87 479.21 363.07 428.99 413.3 428.99 406.31 479.21" style="fill: rgb(69, 90, 100); transform-origin: 388.185px 454.1px;" id="elc7ci4ajtmy" class="animable"></polygon><rect x="358.56" y="428.48" width="59.26" height="7.81" style="fill: rgb(69, 90, 100); transform-origin: 388.19px 432.385px;" id="elif1qh0pu1md" class="animable"></rect><path d="M417.81,436.42c0,.14-13.11.26-29.29.26s-29.29-.12-29.29-.26,13.12-.26,29.29-.26S417.81,436.27,417.81,436.42Z" style="fill: rgb(38, 50, 56); transform-origin: 388.52px 436.42px;" id="el4ldgbm0dill" class="animable"></path></g><g id="freepik--Device--inject-4" class="animable" style="transform-origin: 254.415px 269.995px;"><rect x="149.13" y="61.44" width="210.64" height="417.11" rx="25.34" style="fill: rgb(69, 90, 100); transform-origin: 254.45px 269.995px;" id="elw8pfw5ygb4" class="animable"></rect><g id="elard94u5y2tu"><rect x="49.21" y="168" width="410.48" height="204" rx="22.23" style="fill: rgb(38, 50, 56); transform-origin: 254.45px 270px; transform: rotate(90deg);" class="animable"></rect></g><path d="M239.32,77.9a2.34,2.34,0,0,1,0-4.68h30.12a2.34,2.34,0,1,1,0,4.68Z" style="fill: rgb(69, 90, 100); transform-origin: 254.38px 75.56px;" id="eli0y6mci7fpo" class="animable"></path><path d="M223.17,77.9a2.34,2.34,0,1,1,2.34-2.34A2.35,2.35,0,0,1,223.17,77.9Z" style="fill: rgb(69, 90, 100); transform-origin: 223.17px 75.56px;" id="elouf2w77no8b" class="animable"></path><path d="M231.79,77.9a2.34,2.34,0,1,1,2.34-2.34A2.34,2.34,0,0,1,231.79,77.9Z" style="fill: rgb(69, 90, 100); transform-origin: 231.79px 75.56px;" id="el7g50r0omvm5" class="animable"></path><path d="M285.73,77.9a2.34,2.34,0,1,1,2.34-2.34A2.35,2.35,0,0,1,285.73,77.9Z" style="fill: rgb(69, 90, 100); transform-origin: 285.73px 75.56px;" id="elepa4umppqf6" class="animable"></path><path d="M277.11,77.9a2.34,2.34,0,1,1,2.34-2.34A2.35,2.35,0,0,1,277.11,77.9Z" style="fill: rgb(69, 90, 100); transform-origin: 277.11px 75.56px;" id="elwrxuhrzfc9a" class="animable"></path><path d="M337.23,67.57H300.76A6.17,6.17,0,0,0,294.83,72l-2.32,8a6.93,6.93,0,0,1-6.65,5H223a6.93,6.93,0,0,1-6.65-5l-2.32-8a6.19,6.19,0,0,0-5.94-4.46H179.77a22.58,22.58,0,0,0-22.58,22.58V454.44a15.26,15.26,0,0,0,15.26,15.26H338.3a13.4,13.4,0,0,0,13.4-13.4V82A14.47,14.47,0,0,0,337.23,67.57Z" style="fill: rgb(250, 250, 250); transform-origin: 254.445px 268.62px;" id="el5dktoudjdms" class="animable"></path><path d="M345.19,74.3a22.52,22.52,0,0,0-16.07-6.73h-33L291.06,85H217.84l-5.07-17.45H172a14.76,14.76,0,0,0-14.76,14.76V346.09l.58.07c19,2.06,37.4-9.86,47.81-25.84S219.66,284.94,221.5,266s2.06-38.23,6.52-56.78a128.57,128.57,0,0,1,54-76.66c13.23-8.64,28-14.81,40.65-24.33C333.78,99.81,343.33,87.82,345.19,74.3Z" style="fill: rgb(245, 245, 245); transform-origin: 251.215px 206.971px;" id="el310cporstdw" class="animable"></path><path d="M351.7,460.55V343.84a97.06,97.06,0,0,0-73,47.24c-13.57,23.51-16.26,52.94-7.59,78.62h71.46A9.15,9.15,0,0,0,351.7,460.55Z" style="fill: rgb(245, 245, 245); transform-origin: 308.91px 406.77px;" id="elvcrwcipnl6n" class="animable"></path><g id="elt6152bd1p6"><path d="M360.83,152.1h.31a0,0,0,0,1,0,0V200a0,0,0,0,1,0,0h-.31a1.07,1.07,0,0,1-1.07-1.07V153.17A1.07,1.07,0,0,1,360.83,152.1Z" style="fill: rgb(69, 90, 100); transform-origin: 360.45px 176.05px; transform: rotate(180deg);" class="animable"></path></g><path d="M148.76,181.64h.37a0,0,0,0,1,0,0V212a0,0,0,0,1,0,0h-.37a1.07,1.07,0,0,1-1.07-1.07V182.71A1.07,1.07,0,0,1,148.76,181.64Z" style="fill: rgb(69, 90, 100); transform-origin: 148.41px 196.82px;" id="elmvbk7mof2uc" class="animable"></path><path d="M148.76,142h.37a0,0,0,0,1,0,0v30.35a0,0,0,0,1,0,0h-.37a1.07,1.07,0,0,1-1.07-1.07V143.06A1.07,1.07,0,0,1,148.76,142Z" style="fill: rgb(69, 90, 100); transform-origin: 148.41px 157.175px;" id="elrcplbeli41e" class="animable"></path><path d="M148.84,112.23h.29a0,0,0,0,1,0,0v14.11a0,0,0,0,1,0,0h-.29a.95.95,0,0,1-.95-.95V113.17A.95.95,0,0,1,148.84,112.23Z" style="fill: rgb(69, 90, 100); transform-origin: 148.51px 119.285px;" id="el8iczw04zqfd" class="animable"></path><rect x="304.48" y="81.14" width="1.45" height="2.03" style="fill: rgb(38, 50, 56); transform-origin: 305.205px 82.155px;" id="elcoh7z4gsblo" class="animable"></rect><rect x="306.84" y="80.24" width="1.45" height="2.93" style="fill: rgb(38, 50, 56); transform-origin: 307.565px 81.705px;" id="elscwntqclzuc" class="animable"></rect><rect x="309.19" y="79.56" width="1.45" height="3.61" style="fill: rgb(38, 50, 56); transform-origin: 309.915px 81.365px;" id="eltfyxuacb76" class="animable"></rect><rect x="311.55" y="78.25" width="1.45" height="4.92" style="fill: rgb(38, 50, 56); transform-origin: 312.275px 80.71px;" id="el7hwik6t5yl" class="animable"></rect><path d="M334.35,83.27h-7.26a.52.52,0,0,1-.52-.52V79.14a.52.52,0,0,1,.51-.52h7.27a.18.18,0,0,1,.1,0,.17.17,0,0,1,0,.1V80h.78a.13.13,0,0,1,.14.13v1.74a.13.13,0,0,1-.14.13h-.78v1.19A.13.13,0,0,1,334.35,83.27Zm-.13-4.38h-7.14a.24.24,0,0,0-.24.25v3.61a.26.26,0,0,0,.25.26h7.13V81.82a.13.13,0,0,1,.13-.13h.78V80.21h-.78a.13.13,0,0,1-.13-.13Z" style="fill: rgb(38, 50, 56); transform-origin: 330.97px 80.9415px;" id="el06r5217ct0sb" class="animable"></path><polygon points="327.43 82.42 327.43 79.48 333.63 79.48 333.63 80.81 333.63 81.09 333.63 82.42 327.43 82.42" style="fill: rgb(38, 50, 56); transform-origin: 330.53px 80.95px;" id="el7i7b0caits4" class="animable"></polygon><path d="M319.92,83a.53.53,0,0,0-.53-.53.52.52,0,0,0-.53.53.53.53,0,0,0,.53.53A.53.53,0,0,0,319.92,83Z" style="fill: rgb(38, 50, 56); transform-origin: 319.39px 83px;" id="eli0dgvybm23l" class="animable"></path><path d="M317.58,81.72l.67.67a1.61,1.61,0,0,1,2.27,0l.68-.67a2.55,2.55,0,0,0-1.81-.75A2.51,2.51,0,0,0,317.58,81.72Z" style="fill: rgb(38, 50, 56); transform-origin: 319.39px 81.68px;" id="el5hhf6k3xirf" class="animable"></path><path d="M319.39,79.46a4,4,0,0,0-2.88,1.19l.68.68a3.07,3.07,0,0,1,2.2-.92,3.11,3.11,0,0,1,2.2.92l.67-.68A4,4,0,0,0,319.39,79.46Z" style="fill: rgb(38, 50, 56); transform-origin: 319.385px 80.3949px;" id="elb2iii2tq2h4" class="animable"></path><path d="M315.41,79.55l.67.68a4.67,4.67,0,0,1,6.61,0l.68-.68a5.63,5.63,0,0,0-8,0Z" style="fill: rgb(38, 50, 56); transform-origin: 319.37px 79.056px;" id="elg8qwk8qewv8" class="animable"></path><g id="elafmwkk86jhg"><circle cx="276.43" cy="224.56" r="25.69" style="fill: rgb(245, 245, 245); transform-origin: 276.43px 224.56px; transform: rotate(-67.87deg);" class="animable"></circle></g><path d="M185.71,173.14c0-6.53,3.42-10.43,8.17-10.43s8.19,3.9,8.19,10.43-3.45,10.42-8.19,10.42S185.71,179.67,185.71,173.14Zm14.2,0c0-5.48-2.46-8.5-6-8.5s-6,3-6,8.5,2.46,8.49,6,8.49S199.91,178.61,199.91,173.14Z" style="fill: rgb(38, 50, 56); transform-origin: 193.89px 173.135px;" id="elw5a3ehj2ti9" class="animable"></path><path d="M219.88,173c0,7-3.81,10.6-9.37,10.6a9.4,9.4,0,0,1-4.86-1.11l.85-1.7a7.2,7.2,0,0,0,4,1c4.42,0,7.26-2.84,7.26-8.41,0-.47,0-1.05-.09-1.67-1,2.26-3.42,3.52-6.26,3.52-4.07,0-6.91-2.4-6.91-6.15s3-6.3,7-6.3C216.92,162.71,219.88,166.49,219.88,173Zm-2.9-4.07c0-2.25-1.87-4.39-5.42-4.39-2.95,0-5,1.73-5,4.45s2,4.42,5.15,4.42S217,171.44,217,168.89Z" style="fill: rgb(38, 50, 56); transform-origin: 212.19px 173.194px;" id="elfsq6p659b9" class="animable"></path><path d="M223,169.45a1.55,1.55,0,0,1,1.56-1.58,1.58,1.58,0,0,1,1.58,1.58,1.61,1.61,0,0,1-1.58,1.61A1.59,1.59,0,0,1,223,169.45Zm0,12.47a1.55,1.55,0,0,1,1.56-1.58,1.58,1.58,0,0,1,1.58,1.58,1.6,1.6,0,0,1-1.58,1.61A1.58,1.58,0,0,1,223,181.92Z" style="fill: rgb(38, 50, 56); transform-origin: 224.57px 175.7px;" id="elp92o90k3tbb" class="animable"></path><path d="M229.13,173.14c0-6.53,3.43-10.43,8.17-10.43s8.2,3.9,8.2,10.43-3.45,10.42-8.2,10.42S229.13,179.67,229.13,173.14Zm14.2,0c0-5.48-2.46-8.5-6-8.5s-6,3-6,8.5,2.46,8.49,6,8.49S243.33,178.61,243.33,173.14Z" style="fill: rgb(38, 50, 56); transform-origin: 237.315px 173.135px;" id="el889vgtkp38v" class="animable"></path><path d="M248.52,173.14c0-6.53,3.42-10.43,8.17-10.43s8.2,3.9,8.2,10.43-3.46,10.42-8.2,10.42S248.52,179.67,248.52,173.14Zm14.2,0c0-5.48-2.46-8.5-6-8.5s-6,3-6,8.5,2.46,8.49,6,8.49S262.72,178.61,262.72,173.14Z" style="fill: rgb(38, 50, 56); transform-origin: 256.705px 173.135px;" id="elij9ak40p4c9" class="animable"></path><path d="M322.54,139.17h-132A13.13,13.13,0,0,1,177.41,126h0a13.13,13.13,0,0,1,13.13-13.13h132A13.13,13.13,0,0,1,335.67,126h0A13.13,13.13,0,0,1,322.54,139.17Z" style="fill: rgb(224, 224, 224); transform-origin: 256.54px 126.02px;" id="elj33yf0pfnz" class="animable"></path><path d="M319.11,131.05a5,5,0,1,1,5-5A5,5,0,0,1,319.11,131.05Zm0-9a4,4,0,1,0,4,4A4,4,0,0,0,319.11,122Z" style="fill: rgb(38, 50, 56); transform-origin: 319.11px 126.05px;" id="el2nebnvx0otj" class="animable"></path><path d="M325.84,132.35a.46.46,0,0,1-.33-.13l-3.3-2.88a.5.5,0,0,1,.66-.75l3.3,2.88a.5.5,0,0,1,0,.71A.5.5,0,0,1,325.84,132.35Z" style="fill: rgb(38, 50, 56); transform-origin: 324.187px 130.415px;" id="elz9q62zqwjtm" class="animable"></path><path d="M318.35,181.32a7.64,7.64,0,0,0,1.06,0,5.49,5.49,0,0,0,2.71-1.18,5.26,5.26,0,0,0,1.36-1.62,4.76,4.76,0,0,0,.44-1.11,4.93,4.93,0,0,0,.15-1.28,5.47,5.47,0,0,0-.2-1.37,6.55,6.55,0,0,0-.58-1.34,5.24,5.24,0,0,0-2.29-2.09l-.05,0v-.05a3.89,3.89,0,0,0-2.1-3.54,3.84,3.84,0,0,0-4.35.73l-.13.12,0-.17a7.29,7.29,0,0,0-4.47-5.12,6.77,6.77,0,0,0-1.81-.45,2.38,2.38,0,0,0-.46,0h-.46a6.62,6.62,0,0,0-4.09,1.63,7.92,7.92,0,0,0-2,2.7,6.88,6.88,0,0,0-.59,3.12v.12l-.11,0a5.27,5.27,0,0,0-3.52.42,6.17,6.17,0,0,0-1.39.94,5.85,5.85,0,0,0-1,1.23,5.38,5.38,0,0,0-.55,1.38,4.71,4.71,0,0,0-.1,1.39,5.38,5.38,0,0,0,.73,2.34A5.64,5.64,0,0,0,297,180.3a7.15,7.15,0,0,0,1.17.38h-.08l-.23,0a2,2,0,0,1-.38-.1,4,4,0,0,1-.51-.18,5.64,5.64,0,0,1-2.58-2.33,5.58,5.58,0,0,1-.77-2.38,4.67,4.67,0,0,1,.66-2.85,5.58,5.58,0,0,1,1-1.27,6.58,6.58,0,0,1,1.43-1,5.4,5.4,0,0,1,3.63-.44l-.11.09a7.09,7.09,0,0,1,.6-3.2,8.13,8.13,0,0,1,2.08-2.78,7.07,7.07,0,0,1,3.28-1.57,7.16,7.16,0,0,1,.93-.11h.48a3.71,3.71,0,0,1,.47,0,7.06,7.06,0,0,1,1.86.47,7.46,7.46,0,0,1,4.59,5.26l-.16-.05a3.95,3.95,0,0,1,6.75,3l-.05-.08a5.31,5.31,0,0,1,2.35,2.16,6.59,6.59,0,0,1,.59,1.38,5.77,5.77,0,0,1,.2,1.4,5.68,5.68,0,0,1-.16,1.32,5.05,5.05,0,0,1-.47,1.14,5.54,5.54,0,0,1-4.16,2.79,4.78,4.78,0,0,1-.8,0Z" style="fill: rgb(38, 50, 56); transform-origin: 308.9px 171.96px;" id="elkmgr6fkf79c" class="animable"></path><path d="M318.86,181.86l-.29,0-.29,0a.5.5,0,0,1-.4-.35A.5.5,0,0,1,318,181a.57.57,0,0,1,.47-.14,6.66,6.66,0,0,0,.88,0,5,5,0,0,0,2.45-1.08,4.78,4.78,0,0,0,1.24-1.46,4.56,4.56,0,0,0,.4-1,4.49,4.49,0,0,0,.13-1.14,5.36,5.36,0,0,0-.18-1.23,6.09,6.09,0,0,0-.53-1.23,4.8,4.8,0,0,0-2.06-1.89.58.58,0,0,1-.35-.5,3.27,3.27,0,0,0-5.59-2.49l-.12.13a.51.51,0,0,1-.5.12.49.49,0,0,1-.35-.37l0-.18a6.78,6.78,0,0,0-4.16-4.75,6.36,6.36,0,0,0-1.67-.42,3.66,3.66,0,0,0-.42,0h-.67a3.85,3.85,0,0,0-.58.08,6.35,6.35,0,0,0-3,1.43,7.3,7.3,0,0,0-1.9,2.52,6.39,6.39,0,0,0-.55,2.89v.11a.53.53,0,0,1-.18.42.49.49,0,0,1-.44.1l-.11,0a4.72,4.72,0,0,0-3.18.38,5.74,5.74,0,0,0-1.28.86,5.57,5.57,0,0,0-.91,1.12,5,5,0,0,0-.5,1.24,4.05,4.05,0,0,0-.08,1.22,4.87,4.87,0,0,0,.66,2.13,5.18,5.18,0,0,0,2.29,2.13,4.44,4.44,0,0,0,1,.32.56.56,0,0,1,.42.26.53.53,0,0,1,.06.39.58.58,0,0,1-.65.35l-.24,0a2.6,2.6,0,0,1-.46-.12l-.12,0a2.2,2.2,0,0,1-.44-.17,6.07,6.07,0,0,1-2.79-2.52,6,6,0,0,1-.83-2.59,5.33,5.33,0,0,1,.09-1.56,6,6,0,0,1,.62-1.58,6.23,6.23,0,0,1,2.66-2.44,6,6,0,0,1,3.25-.61,7.42,7.42,0,0,1,.65-2.7,8.28,8.28,0,0,1,2.21-2.95,7.55,7.55,0,0,1,3.51-1.7,5.5,5.5,0,0,1,.75-.09l.23,0h.52a3.31,3.31,0,0,1,.55,0,7.66,7.66,0,0,1,2,.49,8.12,8.12,0,0,1,4.65,4.73,4.44,4.44,0,0,1,6.85,3.54,6,6,0,0,1,2.23,2.2,6.12,6.12,0,0,1,.86,3,6.12,6.12,0,0,1-.18,1.45,5.45,5.45,0,0,1-.52,1.28,5.84,5.84,0,0,1-1.53,1.77,5.91,5.91,0,0,1-3,1.26C319.25,181.84,319,181.86,318.86,181.86Z" style="fill: rgb(38, 50, 56); transform-origin: 308.964px 172.144px;" id="elgs1ldfgvc5d" class="animable"></path><path d="M306.49,177.74a20.58,20.58,0,0,1-1.39,2.5,23.46,23.46,0,0,1-1.55,2.4,19.64,19.64,0,0,1,1.38-2.5A21.3,21.3,0,0,1,306.49,177.74Z" style="fill: rgb(38, 50, 56); transform-origin: 305.02px 180.19px;" id="elolwm7njpztj" class="animable"></path><path d="M303.58,183.18a.66.66,0,0,1-.29-.11c-.48-.29-.47-.38,1.21-3.19,1.53-2.54,1.65-2.57,1.86-2.63a.5.5,0,0,1,.38.06h0a.56.56,0,0,1,.23.31c0,.22.08.33-1.45,2.88C304.23,182.65,303.89,183.18,303.58,183.18Z" style="fill: rgb(38, 50, 56); transform-origin: 304.994px 180.208px;" id="elnzo7y0smsth" class="animable"></path><path d="M311.1,177.74a19,19,0,0,1-1.39,2.5,23.46,23.46,0,0,1-1.55,2.4,19.64,19.64,0,0,1,1.38-2.5A21.3,21.3,0,0,1,311.1,177.74Z" style="fill: rgb(38, 50, 56); transform-origin: 309.63px 180.19px;" id="elrvuqih8c6c" class="animable"></path><path d="M308.16,183.14a.5.5,0,0,1-.26-.08c-.48-.28-.47-.37,1.21-3.18,1.53-2.54,1.65-2.57,1.87-2.63a.5.5,0,0,1,.38.06h0c.47.29.47.38-1.22,3.19-1.53,2.54-1.65,2.57-1.86,2.62Z" style="fill: rgb(38, 50, 56); transform-origin: 309.628px 180.188px;" id="eld06sehq9d75" class="animable"></path><path d="M315.71,177.74a19,19,0,0,1-1.39,2.5,23.46,23.46,0,0,1-1.55,2.4,19.64,19.64,0,0,1,1.38-2.5A21.3,21.3,0,0,1,315.71,177.74Z" style="fill: rgb(38, 50, 56); transform-origin: 314.24px 180.19px;" id="elxec1dnvp8yi" class="animable"></path><path d="M312.8,183.18a.66.66,0,0,1-.29-.11c-.48-.29-.47-.38,1.22-3.19,1.52-2.54,1.64-2.57,1.86-2.63a.52.52,0,0,1,.38.06h0a.52.52,0,0,1,.23.31c.05.22.08.33-1.45,2.88C313.46,182.65,313.11,183.18,312.8,183.18Z" style="fill: rgb(38, 50, 56); transform-origin: 314.227px 180.209px;" id="eloyyy1uq93m" class="animable"></path><path d="M301.15,184.61a19.81,19.81,0,0,1-1.39,2.5,21.38,21.38,0,0,1-1.55,2.39A20.14,20.14,0,0,1,299.6,187,19.5,19.5,0,0,1,301.15,184.61Z" style="fill: rgb(38, 50, 56); transform-origin: 299.68px 187.055px;" id="elojt0h1u6sdo" class="animable"></path><path d="M298.21,190a.48.48,0,0,1-.26-.07.52.52,0,0,1-.23-.31c-.05-.21-.08-.33,1.45-2.87,1.68-2.8,1.76-2.86,2.24-2.57h0c.47.29.47.38-1.22,3.18-1.53,2.55-1.64,2.58-1.86,2.63Z" style="fill: rgb(38, 50, 56); transform-origin: 299.691px 187.032px;" id="eless5ob0vfsi" class="animable"></path><path d="M305.76,184.61a42,42,0,0,1-2.94,4.89,20.14,20.14,0,0,1,1.39-2.49A21,21,0,0,1,305.76,184.61Z" style="fill: rgb(38, 50, 56); transform-origin: 304.29px 187.055px;" id="elbx6n2dxd2x7" class="animable"></path><path d="M302.82,190a.48.48,0,0,1-.26-.07.52.52,0,0,1-.23-.31c-.05-.21-.08-.33,1.45-2.87,1.68-2.81,1.76-2.86,2.24-2.57h0c.46.29.46.38-1.23,3.18-1.52,2.55-1.64,2.58-1.86,2.63Z" style="fill: rgb(38, 50, 56); transform-origin: 304.298px 187.032px;" id="el3iyqf0d5yi6" class="animable"></path><path d="M310.37,184.61a38.64,38.64,0,0,1-2.94,4.89,20.14,20.14,0,0,1,1.39-2.49A21,21,0,0,1,310.37,184.61Z" style="fill: rgb(38, 50, 56); transform-origin: 308.9px 187.055px;" id="elasznsrzxoq4" class="animable"></path><path d="M307.43,190a.48.48,0,0,1-.26-.07.52.52,0,0,1-.23-.31c-.05-.21-.08-.33,1.45-2.87,1.68-2.8,1.76-2.86,2.24-2.57h0c.48.29.47.38-1.22,3.18-1.53,2.55-1.64,2.58-1.86,2.63Z" style="fill: rgb(38, 50, 56); transform-origin: 308.913px 187.032px;" id="el97oy9ecel8a" class="animable"></path><path d="M315.19,184.71a22.37,22.37,0,0,1-1.39,2.5,19.78,19.78,0,0,1-1.56,2.4,22.37,22.37,0,0,1,1.39-2.5A19.78,19.78,0,0,1,315.19,184.71Z" style="fill: rgb(38, 50, 56); transform-origin: 313.715px 187.16px;" id="elrkq49305vz" class="animable"></path><path d="M312.28,190.15A.66.66,0,0,1,312,190c-.48-.29-.48-.38,1.21-3.19,1.53-2.54,1.65-2.57,1.86-2.62a.55.55,0,0,1,.38.05h0a.59.59,0,0,1,.23.31c.05.22.08.34-1.45,2.88C312.93,189.63,312.59,190.15,312.28,190.15Z" style="fill: rgb(38, 50, 56); transform-origin: 313.71px 187.163px;" id="elvnez715vzaf" class="animable"></path><circle cx="236.01" cy="389.4" r="4.24" style="fill: rgb(235, 235, 235); transform-origin: 236.01px 389.4px;" id="elh7a23c84vxc" class="animable"></circle><circle cx="250.18" cy="389.4" r="4.24" style="fill: rgb(224, 224, 224); transform-origin: 250.18px 389.4px;" id="ellkd78llf1mh" class="animable"></circle><circle cx="264.35" cy="389.4" r="4.24" style="fill: rgb(224, 224, 224); transform-origin: 264.35px 389.4px;" id="elxyvabepxvin" class="animable"></circle><circle cx="278.52" cy="389.4" r="4.24" style="fill: rgb(224, 224, 224); transform-origin: 278.52px 389.4px;" id="el68rxtckrva" class="animable"></circle><rect x="175.61" y="410.48" width="34.15" height="34.15" rx="9.07" style="fill: rgb(255, 114, 94); transform-origin: 192.685px 427.555px;" id="el1r5na5c0qrb" class="animable"></rect><rect x="218.18" y="410.16" width="34.15" height="34.15" rx="9.61" style="fill: rgb(224, 224, 224); transform-origin: 235.255px 427.235px;" id="elpxo4honfih" class="animable"></rect><rect x="260.75" y="409.85" width="34.15" height="34.15" rx="10.16" style="fill: rgb(69, 90, 100); transform-origin: 277.825px 426.925px;" id="el6xpg3vn90fb" class="animable"></rect><rect x="303.32" y="410.48" width="34.15" height="34.15" rx="10.28" style="fill: rgb(38, 50, 56); transform-origin: 320.395px 427.555px;" id="elbm9d5jzzm4" class="animable"></rect><rect x="175.61" y="336.55" width="34.15" height="34.15" rx="8.99" style="fill: rgb(69, 90, 100); transform-origin: 192.685px 353.625px;" id="elz613b98lc6" class="animable"></rect><rect x="218.18" y="336.23" width="34.15" height="34.15" rx="10.54" style="fill: rgb(38, 50, 56); transform-origin: 235.255px 353.305px;" id="elfzw3ytpwkrk" class="animable"></rect><rect x="260.75" y="335.91" width="34.15" height="34.15" rx="9.33" style="fill: rgb(224, 224, 224); transform-origin: 277.825px 352.985px;" id="el035yc3ax28qn" class="animable"></rect><rect x="303.32" y="335.6" width="34.15" height="34.15" rx="10.2" style="fill: rgb(255, 114, 94); transform-origin: 320.395px 352.675px;" id="elfi8mmadf84d" class="animable"></rect><path d="M189,347.54a7.14,7.14,0,0,1,1.73-.75l.35-1.7,2.89,0,.41,1.69a7.24,7.24,0,0,1,1.75.69l1.46-1,2.07,2-.9,1.49a7.14,7.14,0,0,1,.75,1.73l1.7.35.05,2.89-1.69.41a7.24,7.24,0,0,1-.69,1.75l1,1.46-2,2.07-1.48-.9a7.14,7.14,0,0,1-1.73.75l-.35,1.7-2.89,0-.41-1.69a7.24,7.24,0,0,1-1.75-.69l-1.46,1-2.07-2,.9-1.48a7.14,7.14,0,0,1-.75-1.73l-1.7-.35-.05-2.89,1.69-.41a7.09,7.09,0,0,1,.69-1.75l-1-1.46,2-2.07,1.48.9Zm1,3.48a3.76,3.76,0,1,0,5.31-.1A3.75,3.75,0,0,0,190,351Z" style="fill: rgb(255, 255, 255); transform-origin: 192.7px 353.63px;" id="elhgjvzk0ncsi" class="animable"></path><path d="M269.86,435.21l1.25-4.64a8.59,8.59,0,1,1,3.42,3.39Zm4.9-3,.29.17a7,7,0,1,0-2.38-2.36l.18.29-.7,2.6Z" style="fill: rgb(255, 255, 255); transform-origin: 278.537px 426.514px;" id="eloadzo1gpmdo" class="animable"></path><path d="M281.69,427.67a1.43,1.43,0,0,0-1.22-.28c-.32.13-.53.63-.73.88a.3.3,0,0,1-.4.09,5.56,5.56,0,0,1-2.77-2.38.32.32,0,0,1,0-.46,1.84,1.84,0,0,0,.5-.82,1.73,1.73,0,0,0-.22-1,2.37,2.37,0,0,0-.72-1.08,1,1,0,0,0-1.06.16,2.16,2.16,0,0,0-.75,1.71,2,2,0,0,0,.07.55,4.55,4.55,0,0,0,.52,1.2,8.92,8.92,0,0,0,.54.82,8.53,8.53,0,0,0,2.36,2.2,7.3,7.3,0,0,0,1.47.69,3.26,3.26,0,0,0,1.71.28,2.09,2.09,0,0,0,1.56-1.16,1.09,1.09,0,0,0,.07-.59C282.57,428.1,282,427.86,281.69,427.67Z" style="fill: rgb(255, 255, 255); fill-rule: evenodd; transform-origin: 278.476px 426.392px;" id="el8j93wku97v" class="animable"></path><path d="M198.71,429.61a2.75,2.75,0,0,0-2.33-.53c-.6.25-1,1.2-1.38,1.68a.58.58,0,0,1-.75.17,10.55,10.55,0,0,1-5.27-4.52.63.63,0,0,1,.08-.88,3.62,3.62,0,0,0,1-1.56,3.42,3.42,0,0,0-.43-1.84,4.39,4.39,0,0,0-1.36-2,1.85,1.85,0,0,0-2,.3,4.07,4.07,0,0,0-1.42,3.25,4.46,4.46,0,0,0,.12,1,8.71,8.71,0,0,0,1,2.28,16.41,16.41,0,0,0,1,1.57,15.87,15.87,0,0,0,4.48,4.16,13.22,13.22,0,0,0,2.79,1.33,6.28,6.28,0,0,0,3.25.52,4,4,0,0,0,2.95-2.2,1.87,1.87,0,0,0,.14-1.12C200.38,430.44,199.34,430,198.71,429.61Z" style="fill: rgb(255, 255, 255); fill-rule: evenodd; transform-origin: 192.729px 427.269px;" id="elm3n1mbmmz3" class="animable"></path><path d="M325.74,422.09a1,1,0,1,0,1,1A1,1,0,0,0,325.74,422.09Z" style="fill: rgb(255, 255, 255); transform-origin: 325.74px 423.09px;" id="elm1arfo9eod" class="animable"></path><path d="M321.3,423.08a4.19,4.19,0,1,0,4.19,4.19A4.2,4.2,0,0,0,321.3,423.08Zm0,6.87a2.69,2.69,0,1,1,2.69-2.68A2.68,2.68,0,0,1,321.3,430Z" style="fill: rgb(255, 255, 255); transform-origin: 321.3px 427.27px;" id="elm40gh5w3gp" class="animable"></path><path d="M324.63,436.07h-6.79a5.13,5.13,0,0,1-5.12-5.12v-6.79a5.12,5.12,0,0,1,5.12-5.11h6.79a5.11,5.11,0,0,1,5.11,5.11V431A5.12,5.12,0,0,1,324.63,436.07Zm-6.79-15.42a3.52,3.52,0,0,0-3.52,3.51V431a3.52,3.52,0,0,0,3.52,3.51h6.79a3.51,3.51,0,0,0,3.51-3.51v-6.79a3.51,3.51,0,0,0-3.51-3.51Z" style="fill: rgb(255, 255, 255); transform-origin: 321.23px 427.56px;" id="elrpqpzcf0l1e" class="animable"></path><path d="M227.7,435.56a.74.74,0,0,1-.54-.23.77.77,0,0,1,0-1.07l4.06-4.06a7,7,0,0,1,.5-9.25,6.94,6.94,0,1,1,4.91,11.85,6.83,6.83,0,0,1-4.34-1.52l-4.06,4.05A.72.72,0,0,1,227.7,435.56Zm8.93-15.12a5.43,5.43,0,0,0,0,10.85,5.43,5.43,0,1,0,0-10.85Z" style="fill: rgb(255, 255, 255); transform-origin: 235.254px 427.24px;" id="eltqed53c6o6" class="animable"></path><path d="M258.84,193.28c0,.14-16,.26-35.78.26s-35.79-.12-35.79-.26,16-.27,35.79-.27S258.84,193.13,258.84,193.28Z" style="fill: rgb(38, 50, 56); transform-origin: 223.055px 193.275px;" id="elknum7ldcayj" class="animable"></path><path d="M236.74,353.13a4.2,4.2,0,0,0,2.5-3.88,3.94,3.94,0,1,0-7.87,0,4.17,4.17,0,0,0,2.51,3.92c-6.06.91-5.78,7.49-5.78,7.49l14.31.07S242.74,354,236.74,353.13Z" style="fill: rgb(255, 255, 255); transform-origin: 235.256px 352.921px;" id="elkeew9y9gwnn" class="animable"></path><path d="M289,358.47a4.82,4.82,0,0,0-.95-5.1,5.35,5.35,0,0,0-5.23-1.69,5.85,5.85,0,0,0-11.6.75,4.37,4.37,0,0,0-3.35,5.94Z" style="fill: rgb(255, 255, 255); transform-origin: 278.453px 352.669px;" id="el3do1v8dp2qg" class="animable"></path><path d="M323.34,358.58a1.4,1.4,0,1,1-1.39-1.4A1.4,1.4,0,0,1,323.34,358.58Z" style="fill: rgb(255, 255, 255); transform-origin: 321.94px 358.58px;" id="eliesfmlyps2a" class="animable"></path><path d="M319.16,356.79a3.86,3.86,0,0,1,5.58-.07c.72.71,1.83-.39,1.12-1.1a5.44,5.44,0,0,0-7.8.06c-.69.73.41,1.84,1.1,1.11Z" style="fill: rgb(255, 255, 255); transform-origin: 321.965px 355.516px;" id="eldjt1mxhpbk6" class="animable"></path><path d="M314.43,350.31a11.44,11.44,0,0,1,7.48-3,11.11,11.11,0,0,1,7.62,2.92c.74.69,1.85-.41,1.12-1.1a12.72,12.72,0,0,0-8.73-3.38,13.06,13.06,0,0,0-8.59,3.44c-.76.66.34,1.77,1.1,1.11Z" style="fill: rgb(255, 255, 255); transform-origin: 321.981px 348.126px;" id="elytkhle0bpca" class="animable"></path><path d="M316.3,353.9a7.67,7.67,0,0,1,11.26-.16c.7.73,1.81-.38,1.11-1.1a9.21,9.21,0,0,0-13.47.15c-.69.74.41,1.85,1.1,1.11Z" style="fill: rgb(255, 255, 255); transform-origin: 321.937px 351.965px;" id="eldbvr7puec3w" class="animable"></path></g><g id="freepik--Character--inject-4" class="animable" style="transform-origin: 131.14px 290.465px;"><path d="M118,446.11,117.65,467s21.06,7.37,21.37,11.23l-40.44.74-.75-32.49Z" style="fill: rgb(255, 114, 94); transform-origin: 118.425px 462.54px;" id="el1lfrhgs5v44" class="animable"></path><path d="M105.12,465.43a1.65,1.65,0,0,0-1.11,1.9,1.6,1.6,0,0,0,1.88,1.12,1.76,1.76,0,0,0,1.16-2,1.65,1.65,0,0,0-2.08-.94" style="fill: rgb(224, 224, 224); transform-origin: 105.529px 466.951px;" id="el8hv2yzq9vkn" class="animable"></path><path d="M98.58,478.92l.06-3.28,38.74.52s1.82.75,1.64,2Z" style="fill: rgb(38, 50, 56); transform-origin: 118.806px 477.28px;" id="elni35nv7ur5" class="animable"></path><path d="M118.3,466.73c0,.2-1,.31-2,1s-1.46,1.49-1.64,1.42.09-1.22,1.27-2S118.34,466.55,118.3,466.73Z" style="fill: rgb(38, 50, 56); transform-origin: 116.455px 467.864px;" id="elna4vkpsodah" class="animable"></path><path d="M122.58,468.41c0,.19-.81.54-1.46,1.39s-.83,1.73-1,1.73-.34-1.12.49-2.16S122.57,468.22,122.58,468.41Z" style="fill: rgb(38, 50, 56); transform-origin: 121.28px 469.932px;" id="elztroae9xl0g" class="animable"></path><path d="M125.08,473.44c-.18.05-.48-.93,0-2s1.4-1.54,1.49-1.38-.47.75-.86,1.65S125.27,473.42,125.08,473.44Z" style="fill: rgb(38, 50, 56); transform-origin: 125.7px 471.736px;" id="el3rz1lvbf0p2" class="animable"></path><path d="M117.86,462c-.08.18-1-.08-2.11,0s-2,.46-2.08.29.72-.88,2-1S118,461.82,117.86,462Z" style="fill: rgb(38, 50, 56); transform-origin: 115.769px 461.804px;" id="el1ljgenxne34" class="animable"></path><path d="M94.51,435,80.05,450s10.39,19.74,8,22.78l-30.1-27,21.58-24.31Z" style="fill: rgb(255, 114, 94); transform-origin: 76.23px 447.125px;" id="elr6fqoa58pkm" class="animable"></path><path d="M71.91,440.35a1.65,1.65,0,0,0-2.11.64,1.6,1.6,0,0,0,.62,2.1,1.76,1.76,0,0,0,2.23-.69,1.65,1.65,0,0,0-.89-2.11" style="fill: rgb(224, 224, 224); transform-origin: 71.1947px 441.721px;" id="el8b3mzqqli84" class="animable"></path><path d="M57.94,445.78l2.27-2.37,28,26.78S89,472,88,472.78Z" style="fill: rgb(38, 50, 56); transform-origin: 73.2231px 458.095px;" id="elmjvof25u9r9" class="animable"></path><path d="M80.67,450.29c-.13.14-.93-.45-2.07-.63s-2.09.1-2.17-.08.89-.83,2.28-.6S80.83,450.18,80.67,450.29Z" style="fill: rgb(38, 50, 56); transform-origin: 78.5586px 449.621px;" id="elodz3lpvgg2" class="animable"></path><path d="M82.66,454.43c-.09.17-1-.15-2,0s-1.79.7-1.93.56.51-1.05,1.83-1.24S82.78,454.28,82.66,454.43Z" style="fill: rgb(38, 50, 56); transform-origin: 80.691px 454.365px;" id="elx5hbbpd7usj" class="animable"></path><path d="M81.06,459.81c-.16-.09.3-1,1.4-1.47s2.07-.17,2,0-.86.22-1.75.62S81.22,459.93,81.06,459.81Z" style="fill: rgb(38, 50, 56); transform-origin: 82.7463px 458.957px;" id="elu6kjzfwu0or" class="animable"></path><path d="M83.59,446.5c-.18.08-.67-.73-1.55-1.42s-1.77-1-1.73-1.2,1.13-.16,2.15.67S83.77,446.45,83.59,446.5Z" style="fill: rgb(38, 50, 56); transform-origin: 81.9743px 445.143px;" id="el2gzipj19rbo" class="animable"></path><path d="M174.24,220.24,156.46,232l.26,4.66,4.64,9.78s2.15,2,8.44-4.34S184.06,223,184.06,223Z" style="fill: rgb(255, 190, 157); transform-origin: 170.26px 233.49px;" id="el6qobwox02te" class="animable"></path><path d="M204.17,195.78a1.49,1.49,0,0,0-1.16-.86l-8.71-1.17a2.77,2.77,0,0,0-2.12.65l-24.94,21.41,1.13,1.1,9.36,2.26,26.61-23Z" style="fill: rgb(38, 50, 56); transform-origin: 185.79px 206.451px;" id="elxkag5l9h0s" class="animable"></path><path d="M197.26,197.56a.55.55,0,0,0,.74.05.53.53,0,0,0,.26-.69.56.56,0,0,0-.75,0C197.24,197.05,197.12,197.36,197.26,197.56Z" style="fill: rgb(255, 255, 255); transform-origin: 197.752px 197.253px;" id="elue41ij6pkb8" class="animable"></path><path d="M204.34,196.17a10.34,10.34,0,0,1-1.71-.12L198,195.5l-3.2-.4a1.84,1.84,0,0,0-1.51.39l-1.42,1.24-6.38,5.49c-4.53,3.88-8.65,7.38-11.65,9.89-1.46,1.2-2.67,2.19-3.58,2.95a12.12,12.12,0,0,1-1.35,1,9.15,9.15,0,0,1,1.22-1.18l3.46-3.08c2.94-2.58,7-6.11,11.56-10l6.4-5.46,1.45-1.22a2.27,2.27,0,0,1,1.85-.47l3.2.46,4.62.71A12.75,12.75,0,0,1,204.34,196.17Z" style="fill: rgb(69, 90, 100); transform-origin: 186.625px 205.336px;" id="elb8pshad7vvb" class="animable"></path><path d="M195.29,200.65s-.8-.39-1.89,1.77-4.42,8.31-4.42,8.31l-3.72-3.56-5.68-.82s-1.51.77-.8,1.61,4,2.44,4,2.44l1.52,4.39L178,209.2s-2.62,0-2.32,1.64,3.93,7.75,3.93,7.75l-3.6-1.31-3.62-3.87s-1.36-.32-1.18,1,3.57,6.68,3.57,6.68l4.75,4.22s3.08.61,3.61-.2a10.33,10.33,0,0,0,1-2s1.72,0,2.24-.67a5,5,0,0,0,.66-2s2.38,1.14,3.09-.17a16.53,16.53,0,0,0,1.26-5.27c.05-1.15,4.17-10.76,4.15-11.09S197,200.43,195.29,200.65Z" style="fill: rgb(255, 190, 157); transform-origin: 183.655px 213.076px;" id="eleppyia3bqn" class="animable"></path><path d="M183.29,225.14a3.19,3.19,0,0,1-1.56,0,10.07,10.07,0,0,1-6.48-3.6c-.61-.76-.85-1.31-.79-1.35a20.51,20.51,0,0,0,4,3.26C180.91,224.89,183.31,225,183.29,225.14Z" style="fill: rgb(235, 153, 110); transform-origin: 178.871px 222.713px;" id="elzs9890qrh6" class="animable"></path><path d="M182.54,222.8c-.12.1-.95-.68-1.75-1.83s-1.26-2.2-1.12-2.28.81.82,1.6,1.94S182.67,222.69,182.54,222.8Z" style="fill: rgb(235, 153, 110); transform-origin: 181.101px 220.747px;" id="elk45fxkja0lh" class="animable"></path><path d="M186.77,218.86c-.12.1-1-.67-1.67-1.85s-1-2.26-.89-2.32.69.88,1.39,2S186.9,218.75,186.77,218.86Z" style="fill: rgb(235, 153, 110); transform-origin: 185.489px 216.778px;" id="eldkx6a8melb" class="animable"></path><path d="M190.89,215.89a14.82,14.82,0,0,1-1-2.54,16,16,0,0,1-1-2.52c.12-.1,1,.84,1.59,2.3A4.33,4.33,0,0,1,190.89,215.89Z" style="fill: rgb(235, 153, 110); transform-origin: 189.925px 213.356px;" id="eld73i7ak3xw4" class="animable"></path><path d="M147.91,196.71c-6.75-.24-21-19.83-20.88-26.59l.53-40.67c-.21-10.93,6-20.16,16.91-20.06l1,.07a19.53,19.53,0,0,1,18.23,19.23c.13,9.48.15,19.95-.25,25-.84,10.46-11.41,11.38-11.41,11.38s-.1,2.43-.17,5.51c-.17,6.91,2.53,26.33-4.38,26.09Z" style="fill: rgb(255, 190, 157); transform-origin: 145.406px 153.05px;" id="elf5f2pzrlj9m" class="animable"></path><path d="M152.05,165.07a25.29,25.29,0,0,1-13.36-4.94s2.75,8.09,13.26,7.85Z" style="fill: rgb(235, 153, 110); transform-origin: 145.37px 164.058px;" id="eldq2mo3grf7d" class="animable"></path><path d="M160.17,137.28a1.49,1.49,0,0,1-1.54,1.41,1.45,1.45,0,0,1-1.45-1.46,1.5,1.5,0,0,1,1.54-1.41A1.43,1.43,0,0,1,160.17,137.28Z" style="fill: rgb(38, 50, 56); transform-origin: 158.675px 137.255px;" id="els72m41um8w" class="animable"></path><path d="M161.18,133.17c-.2.18-1.28-.74-2.88-.84s-2.85.62-3,.41.14-.43.67-.77a4.13,4.13,0,0,1,2.42-.57,3.91,3.91,0,0,1,2.28.91C161.13,132.72,161.28,133.09,161.18,133.17Z" style="fill: rgb(38, 50, 56); transform-origin: 158.235px 132.291px;" id="elt5qpbf48o" class="animable"></path><path d="M145.45,137a1.49,1.49,0,0,1-1.54,1.41,1.44,1.44,0,0,1-1.45-1.45A1.5,1.5,0,0,1,144,135.5,1.43,1.43,0,0,1,145.45,137Z" style="fill: rgb(38, 50, 56); transform-origin: 143.956px 136.955px;" id="elqeytehot0h" class="animable"></path><path d="M145.39,132.48c-.2.18-1.28-.73-2.89-.84s-2.84.62-3,.42.13-.44.67-.78a4.19,4.19,0,0,1,2.42-.57,4,4,0,0,1,2.28.91C145.34,132,145.48,132.4,145.39,132.48Z" style="fill: rgb(38, 50, 56); transform-origin: 142.436px 131.602px;" id="el6c3ghfu07fs" class="animable"></path><path d="M150.33,145.23a10.07,10.07,0,0,1,2.64-.3c.41,0,.81-.07.9-.35a2.12,2.12,0,0,0-.2-1.23l-1-3.21c-1.39-4.57-2.36-8.31-2.18-8.36s1.46,3.6,2.85,8.16c.33,1.13.65,2.2.95,3.23a2.42,2.42,0,0,1,.1,1.63,1,1,0,0,1-.71.55,3,3,0,0,1-.71.05A10.59,10.59,0,0,1,150.33,145.23Z" style="fill: rgb(38, 50, 56); transform-origin: 152.408px 138.6px;" id="elj18u212z1x" class="animable"></path><path d="M145.65,126.46c-.25.39-1.78-.14-3.68-.31s-3.5,0-3.66-.42c-.07-.21.27-.55,1-.84a6.14,6.14,0,0,1,2.86-.37,6.21,6.21,0,0,1,2.74.92C145.49,125.86,145.76,126.27,145.65,126.46Z" style="fill: rgb(38, 50, 56); transform-origin: 141.988px 125.542px;" id="el840hrde7g7f" class="animable"></path><path d="M161.05,129.38c-.35.35-1.64-.1-3.22-.2s-2.92.09-3.21-.31c-.12-.19.1-.54.71-.86a5.15,5.15,0,0,1,2.65-.46,5.08,5.08,0,0,1,2.53.87C161.05,128.82,161.21,129.21,161.05,129.38Z" style="fill: rgb(38, 50, 56); transform-origin: 157.849px 128.52px;" id="elrrs9ie03l7" class="animable"></path><path d="M127.89,137.26c-.17-.09-7-2.61-7.3,4.56s7,6,7,5.74S127.89,137.26,127.89,137.26Z" style="fill: rgb(255, 190, 157); transform-origin: 124.235px 142.274px;" id="elmu88qz9xu7" class="animable"></path><path d="M125.51,144.77s-.13.08-.34.17a1.24,1.24,0,0,1-.93,0,3.1,3.1,0,0,1-1.34-2.83,4.16,4.16,0,0,1,.42-1.77,1.45,1.45,0,0,1,1-.93.64.64,0,0,1,.72.37c.09.2,0,.35.08.36s.16-.12.11-.41a.72.72,0,0,0-.27-.46.9.9,0,0,0-.68-.21,1.75,1.75,0,0,0-1.34,1.07,4.21,4.21,0,0,0-.51,2c0,1.45.69,2.82,1.72,3.16a1.35,1.35,0,0,0,1.15-.15C125.49,144.94,125.54,144.78,125.51,144.77Z" style="fill: rgb(235, 153, 110); transform-origin: 123.974px 142.205px;" id="el658jg5epd2o" class="animable"></path><path d="M145.88,146c-.1,0-.17.4,0,1a4,4,0,0,0,1.24,2.14,6.69,6.69,0,0,0,2.06,1.27c.57.22.94.29,1,.2s-.25-.34-.74-.68a14.25,14.25,0,0,1-1.79-1.34C146.31,147.45,146.11,145.93,145.88,146Z" style="fill: rgb(38, 50, 56); transform-origin: 147.982px 148.323px;" id="elifpwl3onu6h" class="animable"></path><path d="M93.82,270.66l-4.64,28.86,3.39,23.85.14,5.18L96.14,354s-1.27,24-1.91,29.18,1.62,78.49,1.62,78.49l23.32-1S128,351.91,128,350.71s12.13-81.34,12.13-81.34Z" style="fill: rgb(38, 50, 56); transform-origin: 114.655px 365.52px;" id="elkvy76yyce3c" class="animable"></path><path d="M152.77,275.11s-.47,97.67-2.65,103.32-63.44,66.36-63.44,66.36l-19.4-15.12L116.82,363l3.05-93.07Z" style="fill: rgb(38, 50, 56); transform-origin: 110.025px 357.36px;" id="el95i0phfl6ot" class="animable"></path><path d="M136.51,300.65c.13,0-2.77,24.68-6.48,55.08s-6.82,55-7,55,2.77-24.67,6.48-55.08S136.37,300.63,136.51,300.65Z" style="fill: rgb(69, 90, 100); transform-origin: 129.768px 355.69px;" id="el4rtmqzl2l8w" class="animable"></path><path d="M96.14,354a.87.87,0,0,1,0,.24c0,.18,0,.42,0,.7,0,.66-.11,1.56-.19,2.71-.2,2.35-.42,5.76-.67,10-.47,8.42-.87,20.06-.77,32.92s.48,24.52.7,33c.1,4.18.18,7.58.24,10,0,1.15,0,2.06,0,2.72,0,.28,0,.52,0,.7a2.17,2.17,0,0,1,0,.24.92.92,0,0,1,0-.24c0-.18,0-.41,0-.7,0-.66-.07-1.56-.12-2.71-.09-2.4-.22-5.8-.39-10-.3-8.43-.76-20.08-.84-32.95s.35-24.53.91-33c.3-4.21.57-7.61.82-9.95.12-1.15.21-2.05.28-2.71,0-.28.07-.51.09-.7A1.35,1.35,0,0,1,96.14,354Z" style="fill: rgb(69, 90, 100); transform-origin: 95.1452px 400.615px;" id="elz5jbe1wdz6b" class="animable"></path><path d="M119.72,298.58c.06.12-4.19,2.36-9.48,5s-9.64,4.68-9.7,4.56,4.19-2.35,9.48-5S119.66,298.46,119.72,298.58Z" style="fill: rgb(69, 90, 100); transform-origin: 110.13px 303.36px;" id="el1hf9utp5rgxh" class="animable"></path><path d="M166.69,223l11.71,10.53s-18.33,20-24,24.45,1.81-30.21,1.81-30.21Z" style="fill: rgb(255, 114, 94); transform-origin: 165.338px 240.687px;" id="elt7f1j96qrx" class="animable"></path><path d="M126.93,160.41l-4.87,6.75-19,7-8.59,64.45-5.43,57.54s7.59-10.82,13.4-11,35.19,8.06,37.18,9.56l3.88-13,3.14,15.09s5.52,1.24,8.4-7l-1.22-28.6s3.88-51.55,3.66-59.33-5.47-29.36-5.47-29.36l-2,6.36L133,164.32Z" style="fill: rgb(255, 114, 94); transform-origin: 123.265px 228.638px;" id="eldgm9au7m2gw" class="animable"></path><path d="M108.58,172.21s-12.45,0-16.48,23S82.29,243,85.27,252.3,100,288.21,100,288.21l16-5.78-6.58-41.87,7.61-41S118,173.89,108.58,172.21Z" style="fill: rgb(255, 114, 94); transform-origin: 100.753px 230.21px;" id="elkg3ql26xvq" class="animable"></path><path d="M122.9,291.68s-7.65-9-8.23-8.78L102,287.48a52.52,52.52,0,0,0,.09,9.81c.49,4.69,1.3,9.72,1.3,9.72l16.71-8.91a29.69,29.69,0,0,0,1.63,5.42c.93,2,4.15-.11,4.15-.11Z" style="fill: rgb(255, 190, 157); transform-origin: 113.847px 294.953px;" id="elh6cdlbdbjq9" class="animable"></path><path d="M117,199.59s0,.25-.1.73-.21,1.22-.38,2.15c-.34,1.89-.83,4.66-1.47,8.2-1.3,7.12-3.18,17.36-5.48,29.93v-.07c1.89,11.92,4.15,26.21,6.63,41.86l0,.19-.18.07-16,5.78-.21.08-.09-.21-5.1-11.82c-3.06-7.25-6-14.33-8.61-21.31-.33-.87-.62-1.75-.91-2.62-.15-.44-.23-.91-.35-1.35a8.23,8.23,0,0,1-.25-1.37,22.87,22.87,0,0,1-.24-2.73c0-.9-.07-1.81,0-2.7a95.53,95.53,0,0,1,.89-10.46c.88-6.77,2.08-13.14,3.17-19.11s2.15-11.51,3.09-16.58c.44-2.54.94-4.95,1.45-7.22.32-1.12.63-2.21.94-3.26s.75-2,1.11-3a24.86,24.86,0,0,1,5.75-8.76,14.83,14.83,0,0,1,5.66-3.42,10.66,10.66,0,0,1,1.69-.37l.44,0h.15l-.58.07a11.44,11.44,0,0,0-1.67.41,15,15,0,0,0-5.56,3.47,24.72,24.72,0,0,0-5.63,8.72c-.35,1-.74,1.94-1.09,3s-.6,2.13-.92,3.24c-.49,2.27-1,4.66-1.4,7.21-.93,5.08-2,10.63-3,16.6S86.44,227.25,85.57,234a94.86,94.86,0,0,0-.87,10.41c0,.89,0,1.78,0,2.67a24.43,24.43,0,0,0,.24,2.69,7.49,7.49,0,0,0,.25,1.32c.11.44.19.88.33,1.31.3.87.59,1.74.91,2.61,2.57,6.95,5.55,14,8.62,21.28,1.74,4,3.46,8,5.09,11.82l-.3-.13,16-5.77-.15.25c-2.44-15.66-4.67-29.94-6.53-41.87v-.06c2.36-12.55,4.29-22.79,5.64-29.9.67-3.53,1.2-6.29,1.57-8.18.18-.93.32-1.64.42-2.14S117,199.59,117,199.59Z" style="fill: rgb(38, 50, 56); transform-origin: 100.614px 230.365px;" id="elpp2jh429yxi" class="animable"></path><path d="M150.08,178.87a3.58,3.58,0,0,1-.37.86l-1.16,2.33-4.19,8.1-.16.32-.21-.29c-1.49-2.05-3.21-4.26-5.09-6.52a128,128,0,0,0-10.08-10.79c-1.36-1.31-2.49-2.34-3.27-3.06a11.19,11.19,0,0,1-1.19-1.14,9.8,9.8,0,0,1,1.31,1c.82.67,2,1.67,3.38,2.95a108.92,108.92,0,0,1,10.22,10.73c1.89,2.27,3.6,4.5,5.07,6.57l-.37,0c1.75-3.22,3.24-6,4.34-8l1.28-2.27A5.35,5.35,0,0,1,150.08,178.87Z" style="fill: rgb(38, 50, 56); transform-origin: 137.22px 179.58px;" id="elq9mnjn468x" class="animable"></path><path d="M154.28,182.31c.17-.06,1,2.87.4,6.77l-.11.69-.33-.63c-.18-.34-.36-.69-.53-1.06-.91-2-1.39-4-1.89-5.29s-.88-2.14-.81-2.17a6.89,6.89,0,0,1,1.12,2c.59,1.33,1.13,3.25,2,5.22.17.36.34.7.51,1l-.44.06a21.26,21.26,0,0,0,.23-4.73C154.4,183,154.23,182.33,154.28,182.31Z" style="fill: rgb(38, 50, 56); transform-origin: 152.948px 185.195px;" id="elb47en7ozw9c" class="animable"></path><path d="M150.9,182.2a.67.67,0,0,1,0,.25c0,.2,0,.45,0,.76,0,.67,0,1.65,0,2.91,0,2.53-.14,6.18-.39,10.69-.48,9-1.58,21.46-2.71,35.19s-2.23,26.14-3,35.17c-.4,4.47-.73,8.1-1,10.65-.12,1.23-.22,2.2-.29,2.89q0,.46-.09.75a1.11,1.11,0,0,1,0,.26.86.86,0,0,1,0-.26q0-.3,0-.75c0-.7.12-1.67.2-2.91.2-2.55.47-6.19.82-10.66.73-9,1.74-21.46,2.86-35.18s2.29-26.16,2.85-35.17c.29-4.5.45-8.15.54-10.67.05-1.24.08-2.21.11-2.91,0-.31,0-.56,0-.76A.79.79,0,0,1,150.9,182.2Z" style="fill: rgb(38, 50, 56); transform-origin: 147.161px 231.96px;" id="el7nmf8lbl9d5" class="animable"></path><path d="M157.62,204.6c.13,0-.58,12.76-1.6,28.46s-2,28.44-2.08,28.43.58-12.75,1.6-28.46S157.49,204.59,157.62,204.6Z" style="fill: rgb(38, 50, 56); transform-origin: 155.784px 233.045px;" id="elpba6lwqpc3b" class="animable"></path><path d="M120.14,189.19c-.09,0-.09-1.15-.55-2.92a14.29,14.29,0,0,0-9.23-10.05c-1.72-.61-2.87-.7-2.86-.79a2.3,2.3,0,0,1,.81,0,12.44,12.44,0,0,1,2.16.45,13.75,13.75,0,0,1,9.46,10.3,12.1,12.1,0,0,1,.26,2.19A2.38,2.38,0,0,1,120.14,189.19Z" style="fill: rgb(38, 50, 56); transform-origin: 113.852px 182.292px;" id="el2rz0g2v1p7l" class="animable"></path><g id="el8nhzncfse3h"><g style="opacity: 0.3; transform-origin: 156.16px 242.79px;" class="animable"><path d="M154.6,257.61a52.18,52.18,0,0,0,1.76-29.82c-.63,10-1.16,20-1.79,30" id="el821se49od1y" class="animable" style="transform-origin: 156.16px 242.79px;"></path></g></g><g id="el2vwjox6wwrr"><g style="opacity: 0.3; transform-origin: 114.61px 245.685px;" class="animable"><path d="M116.36,203.16c-4.11,21.35-7.45,41.6-7,38.8L116,282.43l3.9,5.78C116.49,261.05,113.69,230.21,116.36,203.16Z" id="elqq3mug304ak" class="animable" style="transform-origin: 114.61px 245.685px;"></path></g></g><path d="M171.18,116.48a4.15,4.15,0,0,0-2.13-3.35,6.78,6.78,0,0,0,0-1.2,5.34,5.34,0,0,0-4.91-4.56,5.18,5.18,0,0,0-8.63-3.09,6.19,6.19,0,0,0-6.57-1.36,1.52,1.52,0,0,0-.72.5.74.74,0,0,0-.11.56,3.9,3.9,0,0,0-3-2,3.61,3.61,0,0,0-1.27.09,4.42,4.42,0,0,0-3,1.3,6.25,6.25,0,0,0-7.8,2.82,6,6,0,0,0-5.5,3.7,4.45,4.45,0,0,0-3.73,2.22,4.4,4.4,0,0,0,.06,4.33s-5.11.79-4.12,5.37c.51,2.34,3.61,2.16,3.61,2.16l2.84,14.77c-.06.06.79,1.83,1.68,1.52a4.68,4.68,0,0,0,2-1.92,10.39,10.39,0,0,0,1.7-2.73,2.5,2.5,0,0,0-.79-2.89,3.74,3.74,0,0,0,2.48-2.8,10.92,10.92,0,0,0,.05-3.91q-.3-2.88-.62-5.76a7.18,7.18,0,0,0,6.48-3.63,4.11,4.11,0,0,0,6.06-1,5.37,5.37,0,0,0,6.28,3.76c-.39,1.47,2.18,3,3.61,3.53a5.32,5.32,0,0,0,3.34-.41,8.62,8.62,0,0,0,2.83,1.25h0l.16,0c2,.34,4.12-1.36,5.23-3.08a3.9,3.9,0,0,0,1.56,0A4.15,4.15,0,0,0,171.18,116.48Z" style="fill: rgb(38, 50, 56); transform-origin: 145.404px 121.128px;" id="elr1phzatx4sa" class="animable"></path><path d="M112.77,223.9c0,.07-1.34-.55-3.5-1.43a75.91,75.91,0,0,0-8.6-3,76.75,76.75,0,0,0-8.89-1.88c-2.31-.35-3.75-.49-3.74-.58a4.05,4.05,0,0,1,1,0c.66,0,1.6.09,2.77.22a59,59,0,0,1,17.59,4.87c1.06.49,1.91.91,2.49,1.23S112.79,223.86,112.77,223.9Z" style="fill: rgb(255, 255, 255); transform-origin: 100.405px 220.442px;" id="el1lhepszeiz1" class="animable"></path><path d="M103.64,286.46a1.19,1.19,0,0,1-.13-.26l-.32-.78-1.2-3c-1-2.64-2.49-6.47-4.1-11.26A124.65,124.65,0,0,1,93.28,254,80.31,80.31,0,0,1,92,243.51a74.13,74.13,0,0,1,.31-11.29,165.09,165.09,0,0,1,4-21.41c1.55-6.51,3.07-12.34,4.42-17.22s2.51-8.8,3.34-11.51c.42-1.32.74-2.36,1-3.11l.27-.8a1,1,0,0,1,.11-.27,1.09,1.09,0,0,1-.06.29l-.22.81c-.21.76-.51,1.81-.89,3.14-.77,2.72-1.88,6.66-3.18,11.55s-2.78,10.72-4.31,17.23a169.54,169.54,0,0,0-3.94,21.35,74.45,74.45,0,0,0-.32,11.21,81.25,81.25,0,0,0,1.24,10.38A128,128,0,0,0,98.24,271c1.57,4.8,3,8.64,3.94,11.3.47,1.31.84,2.33,1.11,3.07l.27.8A1.2,1.2,0,0,1,103.64,286.46Z" style="fill: rgb(255, 255, 255); transform-origin: 98.6809px 232.18px;" id="el0uk1fbpq3dq" class="animable"></path><path d="M111.15,256.38s-.27.18-.79.41-1.3.53-2.26.87a57.45,57.45,0,0,1-7.71,2.1,58.74,58.74,0,0,1-7.92,1c-1,.05-1.85.06-2.42.05a2.72,2.72,0,0,1-.89-.07,27,27,0,0,1,3.28-.35c2-.2,4.81-.54,7.85-1.14s5.75-1.35,7.7-1.94A31.27,31.27,0,0,1,111.15,256.38Z" style="fill: rgb(255, 255, 255); transform-origin: 100.155px 258.6px;" id="el0magl8ld8yno" class="animable"></path><path d="M119.66,193c-.08.06-.89-1.2-2.55-2.92a25.2,25.2,0,0,0-3.14-2.74,27.46,27.46,0,0,0-4.4-2.6,28.27,28.27,0,0,0-4.82-1.67,24.53,24.53,0,0,0-4.13-.62c-2.38-.15-3.86.05-3.87-.06a4.36,4.36,0,0,1,1-.19,9.52,9.52,0,0,1,1.22-.1,14.52,14.52,0,0,1,1.64,0,22.8,22.8,0,0,1,4.22.52,25.85,25.85,0,0,1,4.93,1.67,26.83,26.83,0,0,1,4.47,2.68,23.67,23.67,0,0,1,3.12,2.88,14.55,14.55,0,0,1,1.05,1.26,9.67,9.67,0,0,1,.71,1A4.31,4.31,0,0,1,119.66,193Z" style="fill: rgb(255, 255, 255); transform-origin: 108.205px 187.539px;" id="elejdzbwg19u" class="animable"></path><path d="M128.22,290a2.06,2.06,0,0,1,0-.33v-.94c0-.87,0-2.09,0-3.64,0-3.19.11-7.75.18-13.37.21-11.32.49-26.9.81-44.1.15-8.62.27-16.82,0-24.28-.13-3.72-.37-7.26-.69-10.56a55.57,55.57,0,0,0-1.49-9.07,24.13,24.13,0,0,0-3-6.92,17.56,17.56,0,0,0-3.77-4.25,15.16,15.16,0,0,0-3.06-1.91c-.76-.34-1.18-.47-1.17-.5a7.42,7.42,0,0,1,1.21.41,13.45,13.45,0,0,1,3.14,1.84,17.61,17.61,0,0,1,3.9,4.25,24.25,24.25,0,0,1,3.08,7,54.68,54.68,0,0,1,1.57,9.12c.34,3.31.59,6.85.74,10.58.3,7.47.19,15.69,0,24.3-.38,17.21-.71,32.79-1,44.11-.14,5.62-.26,10.17-.35,13.36,0,1.56-.09,2.77-.12,3.64,0,.39,0,.7,0,.94A1.68,1.68,0,0,1,128.22,290Z" style="fill: rgb(255, 255, 255); transform-origin: 122.943px 230.065px;" id="el49ov5h06se4" class="animable"></path><path d="M144.37,268.69a5.68,5.68,0,0,1-1.27-.12c-.8-.12-2-.3-3.41-.55-2.88-.49-6.84-1.23-11.2-2.13s-8.3-1.79-11.13-2.48c-1.42-.35-2.56-.64-3.35-.85a5.61,5.61,0,0,1-1.21-.39,6.08,6.08,0,0,1,1.26.19l3.38.69,11.15,2.33,11.17,2.28,3.38.71A6.32,6.32,0,0,1,144.37,268.69Z" style="fill: rgb(255, 255, 255); transform-origin: 128.585px 265.43px;" id="elprx7bxvleqn" class="animable"></path><path d="M147.08,232.83c0,.14-8-.34-17.93-1.08s-17.91-1.46-17.9-1.6,8,.34,17.94,1.08S147.09,232.69,147.08,232.83Z" style="fill: rgb(255, 255, 255); transform-origin: 129.165px 231.49px;" id="el6hql61n34p6" class="animable"></path><path d="M149.7,201.27a6.79,6.79,0,0,1-1.29.16c-.83.07-2,.15-3.53.23-3,.15-7.11.27-11.66.24s-8.69-.2-11.67-.38c-1.49-.1-2.69-.19-3.53-.27a5.52,5.52,0,0,1-1.28-.18,5.94,5.94,0,0,1,1.3,0l3.53.1c3,.09,7.1.2,11.65.23s8.67,0,11.65-.09l3.53-.06A5.72,5.72,0,0,1,149.7,201.27Z" style="fill: rgb(255, 255, 255); transform-origin: 133.22px 201.469px;" id="elx90t0gxyke" class="animable"></path><path d="M128.41,171.79a14,14,0,0,1-2.39.56,58.3,58.3,0,0,0-5.69,1.5c-2.19.71-4.12,1.5-5.5,2.1a16.13,16.13,0,0,1-2.26,1,9.29,9.29,0,0,1,2.1-1.28A37.86,37.86,0,0,1,126,172,9.59,9.59,0,0,1,128.41,171.79Z" style="fill: rgb(255, 255, 255); transform-origin: 120.49px 174.366px;" id="elacnl12kgvhl" class="animable"></path><path d="M148.43,183.09a5.2,5.2,0,0,1-.92-.78l-2.4-2.27c-2-1.91-4.83-4.53-8-7.33s-6.14-5.27-8.3-7l-2.54-2.09a5.46,5.46,0,0,1-.9-.82,5.72,5.72,0,0,1,1,.66c.64.44,1.55,1.11,2.65,2,2.22,1.69,5.22,4.11,8.41,6.93s6,5.48,7.93,7.46c1,1,1.76,1.81,2.29,2.38A5.6,5.6,0,0,1,148.43,183.09Z" style="fill: rgb(255, 255, 255); transform-origin: 136.9px 172.945px;" id="elmhjaketghm" class="animable"></path><path d="M141.88,172.3a22.85,22.85,0,0,1-3,3.72,23.1,23.1,0,0,1-3.43,3.37,21.34,21.34,0,0,1,3-3.72A22,22,0,0,1,141.88,172.3Z" style="fill: rgb(255, 255, 255); transform-origin: 138.665px 175.845px;" id="elxfzwkakpwr" class="animable"></path><path d="M157.6,201.85a23.54,23.54,0,0,1-3.68-.11,22.1,22.1,0,0,1-3.67-.22,9.44,9.44,0,0,1,3.7-.3A9.3,9.3,0,0,1,157.6,201.85Z" style="fill: rgb(255, 255, 255); transform-origin: 153.925px 201.517px;" id="el06mx6vwked23" class="animable"></path><path d="M155.24,235.21a13.79,13.79,0,0,1-3.74.17,13.29,13.29,0,0,1-3.73-.35,13.79,13.79,0,0,1,3.74-.17A13.42,13.42,0,0,1,155.24,235.21Z" style="fill: rgb(255, 255, 255); transform-origin: 151.505px 235.12px;" id="el6zleqhr63xi" class="animable"></path><path d="M154.57,189.77a.94.94,0,0,1,0,.27l0,.8c0,.74,0,1.77,0,3.08s0,3,0,4.87-.06,4.06-.14,6.45c-.27,9.56-1.09,22.75-2.12,37.3s-1.91,27.73-2.28,37.28c-.11,2.39-.18,4.55-.22,6.45s-.11,3.53-.11,4.86,0,2.34-.06,3.08c0,.33,0,.59,0,.8a1.07,1.07,0,0,1,0,.28,1.07,1.07,0,0,1,0-.28c0-.21,0-.47,0-.8,0-.74,0-1.77-.05-3.08s0-3,0-4.87.06-4.06.14-6.45c.28-9.56,1.11-22.75,2.13-37.3s1.9-27.73,2.27-37.28c.11-2.39.17-4.55.22-6.44s.1-3.54.11-4.87,0-2.34.05-3.08l0-.8C154.56,189.86,154.57,189.77,154.57,189.77Z" style="fill: rgb(255, 255, 255); transform-origin: 152.074px 242.53px;" id="elwc20i041bls" class="animable"></path><path d="M154.08,268.55a22.14,22.14,0,0,1-4.72,1.13,22.35,22.35,0,0,1-4.81.62,23.67,23.67,0,0,1,4.72-1.13A23.14,23.14,0,0,1,154.08,268.55Z" style="fill: rgb(255, 255, 255); transform-origin: 149.315px 269.425px;" id="el249ugndfq36" class="animable"></path><path d="M172.91,229.06a21.59,21.59,0,0,1-2.62,1.72c-1.64,1-3.89,2.45-6.31,4.13s-4.55,3.28-6.08,4.46a23.31,23.31,0,0,1-2.52,1.86,15,15,0,0,1,2.29-2.15c1.48-1.25,3.58-2.91,6-4.6s4.72-3.08,6.41-4A16.75,16.75,0,0,1,172.91,229.06Z" style="fill: rgb(255, 255, 255); transform-origin: 164.145px 235.145px;" id="elfujcxlb5a7v" class="animable"></path><path d="M169.72,242.48a14.54,14.54,0,0,1-1.39-2.29c-.82-1.44-2-3.41-3.29-5.54s-2.61-4-3.54-5.39a15.77,15.77,0,0,1-1.45-2.26,12.09,12.09,0,0,1,1.75,2c1,1.31,2.34,3.18,3.68,5.33s2.44,4.16,3.17,5.65A12.21,12.21,0,0,1,169.72,242.48Z" style="fill: rgb(255, 255, 255); transform-origin: 164.885px 234.74px;" id="elu6q9421p1zd" class="animable"></path></g><g id="freepik--Floor--inject-4" class="animable" style="transform-origin: 250px 478.36px;"><path d="M462.53,478.36c0,.14-95.16.26-212.52.26s-212.54-.12-212.54-.26,95.14-.26,212.54-.26S462.53,478.22,462.53,478.36Z" style="fill: rgb(38, 50, 56); transform-origin: 250px 478.36px;" id="elw70yfmvx2gi" class="animable"></path></g><defs>     <filter id="active" height="200%">         <feMorphology in="SourceAlpha" result="DILATED" operator="dilate" radius="2"></feMorphology>                <feFlood flood-color="#32DFEC" flood-opacity="1" result="PINK"></feFlood>        <feComposite in="PINK" in2="DILATED" operator="in" result="OUTLINE"></feComposite>        <feMerge>            <feMergeNode in="OUTLINE"></feMergeNode>            <feMergeNode in="SourceGraphic"></feMergeNode>        </feMerge>    </filter>    <filter id="hover" height="200%">        <feMorphology in="SourceAlpha" result="DILATED" operator="dilate" radius="2"></feMorphology>                <feFlood flood-color="#ff0000" flood-opacity="0.5" result="PINK"></feFlood>        <feComposite in="PINK" in2="DILATED" operator="in" result="OUTLINE"></feComposite>        <feMerge>            <feMergeNode in="OUTLINE"></feMergeNode>            <feMergeNode in="SourceGraphic"></feMergeNode>        </feMerge>            <feColorMatrix type="matrix" values="0   0   0   0   0                0   1   0   0   0                0   0   0   0   0                0   0   0   1   0 "></feColorMatrix>    </filter></defs></svg>